<svg xmlns="http://www.w3.org/2000/svg" viewBox="0 0 729.51 155.64"><defs><style>.cls-1{fill:#e60004;}.cls-2{fill:#1b1c20;}</style></defs><title>promoAsset 1logo</title><g id="Layer_2" data-name="Layer 2"><g id="Layer_1-2" data-name="Layer 1"><path class="cls-1" d="M56.86,94.26l-5.47,33.59c-.09.62-.39.61-.71.05L34,99.2c-2.9-5.29-8.43-5.64-11.73-5.64-7,0-13.15,2.86-14.38,10.75L0,155H18.77s4.83-31.66,5-32.95.62-1,1-.35l16.36,28c3.45,5.54,8.11,6,12.7,6,11.23,0,13.63-8.67,14-10.84l7.85-50.54Z"/><path class="cls-1" d="M81.3,155c-2.51,0-5-.17-7-2.08-2.41-2.35-2-4.78-1.59-7.63l6.47-41.62a10.26,10.26,0,0,1,3.67-6.94,12.1,12.1,0,0,1,7.75-2.42h43.61L131.87,109h-30a5.51,5.51,0,0,0-3.17.87,4.3,4.3,0,0,0-1.41,3l-.71,4.6H129.7l-2,13.17H94.53l-1,6.59a2.39,2.39,0,0,0,.52,2.26c.81.86,2.39.78,3.6.78h29.65L125,155Z"/><path class="cls-1" d="M285.66,99.81c5.64,6.07,4.26,16.65,3,24.79-1.23,8-3.15,18.64-10.69,24.8-7.35,6-18.49,6.24-27.51,6.24s-20.07-.26-25.56-6.24c-5.63-6.16-4.23-16.82-3-24.8,1.26-8.14,3.16-18.72,10.7-24.79s18.31-6.25,27.5-6.25S280.09,93.82,285.66,99.81Zm-43.19,36.32c2,4,5.38,4.42,10.33,4.42,5.12,0,8.39-.43,11.7-4.42,2.77-3.29,3.29-6.67,4-11.53.83-5.29,1.36-8.14-.46-11.53-2.06-4-5.21-4.42-10.33-4.42s-8.48.43-11.69,4.42c-2.67,3.21-3.27,6.5-4.05,11.53C241.27,129.37,241,133.1,242.47,136.13Z"/><path class="cls-1" d="M207.68,93.56c-5.2,0-11.92.61-17.17,10.06l-16.58,28.44-7.66-29c-1.83-8.91-9.28-9.51-14.3-9.51-3.12,0-12.89,0-14.54,10.67L129.55,155h19.23s4.63-31.37,4.7-31.76.21-.24.27,0,7.1,25.69,7.1,25.69a12.5,12.5,0,0,0,.56,2v.06h0c1.06,2.77,3.37,4.74,9.61,4.74s9.14-2,11.07-4.73h0c.27-.38.53-.78.77-1.2l16.78-27.44L193.51,155h19.32l7.88-50.72C221.29,100.5,221.46,93.56,207.68,93.56Z"/><path class="cls-2" d="M298.63,155c-2.5,0-5-.17-7-2.08-2.42-2.35-2-4.78-1.6-7.63l6.46-41.62a10.31,10.31,0,0,1,3.68-6.94,12.1,12.1,0,0,1,7.75-2.42H351.5L349.21,109h-30a5.51,5.51,0,0,0-3.17.87,4.22,4.22,0,0,0-1.41,3l-.73,4.6H347l-2,13.17H311.87l-1,6.59a2.42,2.42,0,0,0,.51,2.26c.83.86,2.4.78,3.61.78h29.65L342.33,155Z"/><path class="cls-2" d="M390.26,155l-8.37-17.08L368.23,155H344.82l27.76-30.79-17.64-29.9h23.41l7.8,16.21L399,94.26H422.4l-26.94,29.9L413.67,155Z"/><path class="cls-2" d="M416.12,155l7.64-49.25c.39-2.51,1.28-6,3.72-8.32A12.18,12.18,0,0,1,436,94.26h33.55c4.86,0,9.27.61,12.08,4.24,2.4,3,3.3,7.81,1.94,16.56-.66,4.25-2.62,14.66-8.42,19.08-3.24,2.43-7.88,3.29-11.17,3.29H438.43L435.71,155Zm38.7-32.6c2.42,0,4.82.17,6.74-1.56A8.93,8.93,0,0,0,464,115.5c.24-1.57.36-3.47-1-4.77s-3.68-1.39-5.94-1.39H446.17c-3.12,0-3.73,2.25-3.93,3.56l-1.47,9.45Z"/><path class="cls-2" d="M548.11,100.16c-3.07-5.9-9.75-5.9-13.56-5.9h-33c-2.35,0-6,.43-8.62,2.95s-3.25,5.89-3.68,8.67L481.59,155h19.68L504,137.43h1.83A5.56,5.56,0,0,1,510,139.3c1,1,11.49,15.65,11.49,15.65h23.84s-14.07-16.26-15.4-17.59c-.69-.69-.7-.88.14-.88h2.56c4.68,0,9.2-2.59,12.3-8,2.84-4.94,3.72-11.72,4.15-14.5C549.79,109.43,550.11,104.06,548.11,100.16ZM507.8,112.9a6.26,6.26,0,0,1,.2-.93,3.92,3.92,0,0,1,1.25-1.67,4.42,4.42,0,0,1,3.19-1h10.13c2,0,4.09,0,5.53,1.07a2.6,2.6,0,0,1,.4.41c.38.43,1.19,1.81.69,5.12a12.34,12.34,0,0,1-1.43,4.13,6.43,6.43,0,0,1-.64.72c-1.92,1.73-4.31,1.56-6.74,1.56H506.33Z"/><path class="cls-2" d="M557.67,155c-2.51,0-5-.17-7-2.08-2.41-2.35-2-4.78-1.59-7.63l6.46-41.62a10.23,10.23,0,0,1,3.68-6.94,12.09,12.09,0,0,1,7.74-2.42h43.61L608.24,109h-30a5.48,5.48,0,0,0-3.17.87,4.26,4.26,0,0,0-1.41,3l-.72,4.6h33.12l-2,13.17H570.91l-1,6.59a2.39,2.39,0,0,0,.51,2.26c.82.86,2.39.78,3.6.78h29.66L601.37,155Z"/><path class="cls-2" d="M608.51,139.86h33.64c2.86,0,3.54-1,3.68-1.91.28-1.9-1.52-2.51-3.44-3l-22.47-6.59a10.08,10.08,0,0,1-6.22-4.59c-2.28-3.82-1.9-9-1.2-13.53.6-3.81,1.6-8.58,5.7-12.14a16.5,16.5,0,0,1,11-3.81h40.06l-2.35,15.08H636.05c-2.26,0-2.89.18-3.26.35a2.35,2.35,0,0,0-1.21,1.64c-.29,1.91,2.35,2.69,4.6,3.3l19.61,5.46c2.59.7,5.92,2.08,7.75,4.26,3.24,3.72,2.65,9.71,2,13.86-.56,3.55-1.49,8.41-4.82,12.06-4.18,4.59-8.78,4.68-13,4.68H606.16Z"/><path class="cls-2" d="M668.77,139.86H702.4c2.86,0,3.54-1,3.68-1.91.29-1.9-1.52-2.51-3.44-3l-22.47-6.59a10.11,10.11,0,0,1-6.22-4.59c-2.27-3.82-1.9-9-1.2-13.53.6-3.81,1.6-8.58,5.7-12.14a16.5,16.5,0,0,1,11-3.81h40.06l-2.34,15.08H696.3c-2.26,0-2.89.18-3.26.35a2.35,2.35,0,0,0-1.21,1.64c-.29,1.91,2.35,2.69,4.6,3.3l19.62,5.46c2.58.7,5.91,2.08,7.74,4.26,3.24,3.72,2.65,9.71,2,13.86-.55,3.55-1.48,8.41-4.82,12.06-4.17,4.59-8.78,4.68-13,4.68H665.61Z"/><path class="cls-2" d="M453.18,76.46C394.37,39.27,328.2,11.29,256.25.08c-2.57-.4-4,.69-1.4,3.46C285.6,36.65,297.69,59,299,76.46Z"/></g></g></svg>