<?xml version="1.0" standalone="no"?>
<!DOCTYPE svg PUBLIC "-//W3C//DTD SVG 20010904//EN"
 "http://www.w3.org/TR/2001/REC-SVG-20010904/DTD/svg10.dtd">
<svg version="1.0" xmlns="http://www.w3.org/2000/svg"
 width="1000.000000pt" height="1000.000000pt" viewBox="0 0 1000.000000 1000.000000"
 preserveAspectRatio="xMidYMid meet">
<metadata>
Created by potrace 1.14, written by Peter Selinger 2001-2017
</metadata>
<g transform="translate(0.000000,1000.000000) scale(0.100000,-0.100000)"
fill="#000000" stroke="none">
<path d="M4388 9276 c-1 -2 -55 -6 -118 -9 -63 -4 -131 -9 -150 -12 -68 -12
-86 -15 -145 -26 -104 -19 -323 -97 -447 -159 -545 -272 -922 -777 -1033
-1381 -14 -78 -22 -142 -24 -191 -1 -9 -11 -20 -22 -23 -25 -8 -176 -80 -199
-95 -8 -5 -46 -28 -85 -51 -188 -111 -442 -342 -581 -529 -125 -167 -230 -359
-297 -540 -32 -88 -73 -221 -83 -273 -2 -12 -8 -44 -14 -72 -28 -143 -35 -216
-34 -390 0 -159 6 -246 29 -372 31 -178 97 -385 174 -545 37 -78 153 -278 180
-310 6 -7 38 -49 72 -93 131 -170 363 -376 561 -499 139 -85 366 -184 529
-231 153 -43 358 -74 520 -79 l56 -2 1 128 c1 126 1 128 -21 128 -405 8 -806
149 -1127 398 -91 71 -249 225 -295 288 -16 22 -34 44 -40 49 -30 27 -143 212
-195 319 -72 147 -110 256 -144 407 -35 156 -40 209 -41 394 0 220 10 308 55
484 123 483 452 910 895 1163 66 37 248 119 307 138 21 6 40 15 42 19 3 4 7
55 10 113 11 201 49 377 122 560 30 76 53 123 108 223 38 71 165 233 246 314
142 144 273 238 451 327 94 47 293 117 361 128 21 3 57 10 80 16 124 30 428
32 572 5 274 -53 473 -135 689 -285 94 -66 328 -291 363 -348 l18 -32 156 -1
c85 0 164 -2 175 -4 11 -2 45 -6 75 -10 88 -11 209 -40 315 -76 103 -35 316
-146 414 -217 98 -70 269 -230 338 -317 109 -137 217 -334 277 -505 21 -62 63
-227 65 -256 1 -6 42 -26 92 -43 90 -32 257 -109 331 -154 21 -12 75 -50 120
-84 312 -232 519 -538 626 -928 35 -124 47 -231 47 -410 0 -183 -9 -262 -46
-410 -147 -589 -621 -1064 -1206 -1209 -133 -33 -252 -49 -396 -55 -16 -1 -17
-12 -15 -129 l3 -127 35 1 c511 16 969 212 1320 564 376 376 574 865 565 1390
-2 116 -13 258 -20 270 -2 3 -6 26 -10 50 -18 128 -80 317 -155 477 -182 384
-478 689 -863 887 -56 29 -125 61 -153 71 -49 17 -51 20 -64 69 -21 84 -87
252 -141 360 -245 488 -711 859 -1249 996 -138 35 -239 49 -394 57 l-119 5
-31 37 c-101 117 -346 323 -436 364 -8 4 -28 15 -45 25 -228 138 -546 233
-825 248 -58 3 -110 7 -117 9 -6 2 -13 2 -15 1z"/>
<path d="M6630 7439 c-167 -27 -316 -125 -409 -268 -66 -102 -86 -176 -86
-311 0 -63 4 -133 8 -155 l8 -40 -68 -36 c-37 -19 -111 -59 -163 -88 -158 -89
-180 -101 -315 -174 -71 -39 -132 -72 -135 -74 -2 -2 -5 -989 -5 -2193 0
-1938 2 -2189 15 -2192 8 -2 71 -3 140 -3 l125 1 5 2108 5 2109 275 151 275
151 60 -45 c177 -134 406 -159 604 -64 356 168 456 611 207 917 -50 60 -142
130 -216 164 -39 18 -61 25 -130 40 -35 8 -158 9 -200 2z m209 -250 c94 -33
158 -92 204 -189 76 -158 16 -358 -133 -448 -65 -39 -115 -54 -185 -54 -292
-3 -463 335 -287 567 93 124 255 174 401 124z"/>
<path d="M2622 6775 c-140 -33 -279 -129 -359 -247 -36 -52 -80 -160 -92 -225
-22 -114 2 -269 56 -378 26 -51 91 -137 128 -166 11 -9 31 -27 45 -38 40 -36
161 -90 230 -105 60 -12 198 -14 245 -3 11 3 47 15 80 26 33 12 65 23 71 24 6
1 39 -32 74 -73 34 -41 79 -95 100 -120 21 -25 120 -144 220 -265 100 -121
197 -238 215 -260 19 -22 160 -193 315 -380 155 -187 285 -343 289 -347 3 -4
18 2 31 15 14 12 62 53 108 90 45 38 82 71 82 74 0 3 -11 17 -24 31 -14 15
-73 86 -131 157 -59 72 -124 150 -145 175 -21 25 -89 106 -150 180 -61 74
-119 144 -128 155 -9 11 -48 58 -87 105 -38 47 -72 87 -75 90 -3 3 -57 68
-120 145 -63 77 -128 156 -145 175 -16 20 -46 55 -65 80 -19 24 -40 48 -45 54
-6 6 -30 35 -54 64 l-43 53 31 59 c183 343 -10 757 -399 858 -41 10 -211 9
-258 -3z m288 -260 c120 -61 193 -174 197 -307 4 -156 -70 -274 -213 -340 -39
-18 -68 -22 -139 -23 -80 0 -97 3 -149 29 -76 37 -140 102 -174 174 -36 78
-38 211 -4 286 45 99 122 168 225 202 66 22 193 12 257 -21z"/>
<path d="M4737 6434 c-1 -1 -27 -4 -57 -7 -219 -20 -422 -189 -496 -413 -29
-88 -27 -275 4 -363 56 -157 193 -302 337 -359 l50 -20 3 -2271 2 -2271 173 0
172 0 0 2268 -1 2267 90 45 c396 197 446 736 93 1003 -91 70 -203 111 -325
120 -23 2 -43 3 -45 1z m98 -250 c87 -14 190 -94 235 -184 114 -226 -50 -508
-298 -513 -85 -1 -119 5 -179 35 -142 70 -223 238 -188 393 24 108 91 192 193
244 71 36 130 42 237 25z"/>
</g>
</svg>
