<?xml version="1.0" encoding="utf-8"?>
<!-- Generator: Adobe Illustrator 23.0.3, SVG Export Plug-In . SVG Version: 6.00 Build 0)  -->
<svg version="1.1" id="Layer_1" xmlns="http://www.w3.org/2000/svg" xmlns:xlink="http://www.w3.org/1999/xlink" x="0px" y="0px"
	 viewBox="0 0 640 480" style="enable-background:new 0 0 640 480;" xml:space="preserve">
<style type="text/css">
	.st0{fill:#A7C1E9;}
	.st1{fill:#BED2F9;}
	.st2{fill:#6A86CE;}
	.st3{fill:#B8C4DE;}
	.st4{fill:#95A6DB;}
	.st5{fill:#3A49CD;}
	.st6{fill:#3662C1;}
	.st7{fill:#0B0754;}
	.st8{fill:#DE623C;}
	.st9{fill:#F37A50;}
	.st10{fill:#060534;}
	.st11{fill:#FD7166;}
	.st12{fill:#E3675F;}
	.st13{fill:#4364CC;}
	.st14{fill:#FFFFFF;}
	.st15{fill:#FA7269;}
	.st16{fill:#070635;}
	.st17{fill:#B8C9FF;}
	.st18{fill:#E3EAFF;}
	.st19{fill:#302C6E;}
	.st20{fill:#AA2B2B;}
	.st21{fill:#AB1C41;}
	.st22{fill:#7C9AF2;}
	.st23{fill:#92B5F8;}
</style>
<g>
	<g>
		<g>
			<g>
				<polygon class="st0" points="539.1,92.2 489.1,69.3 439.1,92.2 438.9,91.7 489.1,68.7 489.2,68.7 539.3,91.7 				"/>
			</g>
			<path class="st0" d="M490.2,68.9c0,0.5-0.5,1-1,1c-0.6,0-1-0.4-1-1c0-0.5,0.5-1,1-1C489.7,67.9,490.2,68.4,490.2,68.9z"/>
		</g>
		<g>
			<rect x="400.1" y="95.9" class="st1" width="178" height="88.4"/>
			<g>
				<path class="st0" d="M578.1,91.4H394.4V189h189.3V91.4H578.1z M400.1,184.4V95.9H578v88.4H400.1L400.1,184.4z"/>
			</g>
		</g>
		<g>
			<g>
				<path class="st2" d="M536.8,174.3h-82.6c-1.5,0-2.6-1.1-2.6-2.5v-66c0-1.4,1.2-2.5,2.6-2.5c1.5,0,2.6,1.1,2.6,2.5v63.5h80
					c1.5,0,2.6,1.1,2.6,2.5C539.5,173.2,538.3,174.3,536.8,174.3z"/>
			</g>
			<g>
				<g>
					<path class="st2" d="M463.1,114.8c-0.2-0.6-0.1-1.2,0.3-1.8c0.7-1.2,2.3-1.6,3.6-0.9l26.1,13.7c1.1,0.6,1.4,2.6,1.8,4.4
						c1.2,5.4,3.7,14.7,3.7,14.7l16.6,9.4c1.3,0.6,1.8,2.1,1.2,3.3c-0.6,1.2-2.2,1.7-3.5,1.1c0,0-13.2-7.3-17.7-9.5
						c-1.2-0.6-2.1-1.5-2.3-2.7c-0.6-4-4.3-17.4-4.3-17.4l-24.2-12.7C463.7,116,463.3,115.4,463.1,114.8z"/>
				</g>
				<g>
					<polygon class="st2" points="505.1,160.5 511.6,155.3 512.1,147.4 525.2,161.6 					"/>
				</g>
			</g>
		</g>
		<path class="st0" d="M566.7,108.1h-30.6c-1.1,0-2-0.8-2-1.8l0,0c0-1,0.9-1.8,2-1.8h30.6c1.1,0,2,0.8,2,1.8l0,0
			C568.6,107.3,567.8,108.1,566.7,108.1z"/>
		<path class="st0" d="M566.7,114h-30.6c-1.1,0-2-0.8-2-1.8l0,0c0-1,0.9-1.8,2-1.8h30.6c1.1,0,2,0.8,2,1.8l0,0
			C568.6,113.2,567.8,114,566.7,114z"/>
		<path class="st0" d="M566.7,119.7h-30.6c-1.1,0-2-0.8-2-1.8l0,0c0-1,0.9-1.8,2-1.8h30.6c1.1,0,2,0.8,2,1.8l0,0
			C568.6,118.9,567.8,119.7,566.7,119.7z"/>
		<path class="st0" d="M566.7,136.7h-30.6c-1.1,0-2-0.8-2-1.8l0,0c0-1,0.9-1.8,2-1.8h30.6c1.1,0,2,0.8,2,1.8l0,0
			C568.6,135.9,567.8,136.7,566.7,136.7z"/>
		<path class="st0" d="M559.5,142.4h-23.5c-1.1,0-2-0.8-2-1.8v0c0-1,0.9-1.8,2-1.8h23.5c1.1,0,2,0.8,2,1.8l0,0
			C561.5,141.6,560.6,142.4,559.5,142.4z"/>
		<path class="st0" d="M440.2,109h-30.6c-1.1,0-2-0.8-2-1.8l0,0c0-1,0.9-1.8,2-1.8h30.6c1.1,0,2,0.8,2,1.8l0,0
			C442.1,108.2,441.3,109,440.2,109z"/>
		<path class="st0" d="M433,114.7h-23.5c-1.1,0-2-0.8-2-1.8l0,0c0-1,0.9-1.8,2-1.8H433c1.1,0,2,0.8,2,1.8v0
			C435,113.8,434.1,114.7,433,114.7z"/>
	</g>
	<path class="st3" d="M359.8,365.6c0,4.9-31.1,9-69.5,9s-69.5-4-69.5-9c0-4.9,31.1-9,69.5-9S359.8,360.7,359.8,365.6z"/>
	<path class="st3" d="M216.3,356.9c0,4.9-31.1,9-69.5,9c-38.4,0-69.5-4-69.5-9c0-4.9,31.1-9,69.5-9
		C185.2,347.9,216.3,351.9,216.3,356.9z"/>
	<ellipse class="st3" cx="115.2" cy="450.3" rx="84.2" ry="9"/>
	<path class="st3" d="M641,425.6c0,6.3-65.4,11.5-146,11.5s-146-5.1-146-11.5c0-6.3,65.4-11.5,146-11.5S641,419.2,641,425.6z"/>
	<g id="с_1_">
		<path id="с_2_" class="st4" d="M483.6,264.3H331.1c-3.6,0-6.5-1.8-6.5-4.1l0,0c0-2.2,2.9-4.1,6.5-4.1h152.5
			c3.6,0,6.5,1.8,6.5,4.1l0,0C490.1,262.5,487.2,264.3,483.6,264.3z"/>
		<rect x="339.8" y="263.2" class="st4" width="9.9" height="91.9"/>
		<rect x="466.3" y="263.2" class="st4" width="9.9" height="91.9"/>
	</g>
	<g id="c_9_">
		<path d="M156.5,345.7c6.3,8.1,21.7,3.1,21.2,14c-23.5-0.1-33.3,0-33.3,0c0-2.5,0.5-8.4,1-10.8L156.5,345.7z"/>
		<path d="M125.6,345.9c6.3,8.1,21.7,3.1,21.2,14c-23.5-0.1-33.3,0-33.3,0c0-2.5,0.5-8.4,1-10.8L125.6,345.9z"/>
		<path class="st5" d="M167.3,222.8c0,0,3.8,51.6,2.3,63.1c-1.5,11.5-7,26.2-6.4,64.1c-7.7,1.8-18.8,0-18.8,0s-1.6-42.9,6.5-62.1
			c-3.3-18.6-13.9-61.3-13.9-61.3L167.3,222.8z"/>
		<path class="st6" d="M157.1,224.2c0,0-7.7,57.9-11.5,68.9c-3.8,11-7.1,19-13.9,56.4c-7.9,0.4-19.2,0.1-19.2,0.1s1-46.3,13.3-57.1
			c0.4-18.9-2-68-2-68L157.1,224.2z"/>
		<g id="c_11_">
			<path class="st7" d="M135.7,160.7c-12.6-0.6-9.5-15.1-9.5-15.1c-1.8-0.7-4.5-2.8-3.4-6c1-2.7,3.9-2.3,4.6-5.5
				c0.6-2.6-1.2-7,7.8-6.7c0,0,0.7-4.8,6.2-5.4c6.7-0.8,8.3,0.9,11.1,1.9c3.1,1,10.3-1.1,10.5,5.9c0,0,4.6,0.5,6.3,3.8
				c1.6,3.1,0.1,6.6-1.4,7.9c0,0,3.5,1.5,4,4.8c0.3,2.2-0.9,4.9-3.3,6.1c-1.6,0.7-3,0.7-3,0.7c-1.5,0.1,0,3.1-3.4,4.4
				c-2.3,0.8-4.6,1.6-7,2L135.7,160.7z"/>
			<g>
				<g>
					<g>
						<g>
							<g>
								<g>
									<path class="st8" d="M166.1,159.3c-0.7,1.5-2.1,3.3-1.3,5.3l-5.5,1.3c-0.6-5-1-11,0-12.8c0.9-1.5,1-2.4,1.3-2.4
										c0.3,0,2,0.3,1,2.7c-1.2,3,2.2,2.3,3.2-4.5c0.2-1.7,2.5-4,3.1-2.5C168.4,148.1,169.4,152.5,166.1,159.3z"/>
								</g>
							</g>
						</g>
					</g>
				</g>
			</g>
			<polygon id="v-2_4_" class="st9" points="144.4,157.6 144.4,157.6 148.9,159.8 152.8,172.7 144.8,176.6 136.3,172.7 134.8,154.6 
							"/>
			<g>
				<path class="st9" d="M132.2,144.5c-0.8,10.5,8,20.3,16.9,20.8c8.9,0.6,14.5-8.2,15.3-18.7c0.8-10.5-5.8-19.5-14.7-20.1
					C140.9,125.9,133,133.9,132.2,144.5z"/>
				<path d="M157,147.7c0.2,0.8,1,1.2,1.9,1.1c0.8-0.2,1.3-1,1.1-1.7c-0.2-0.8-1-1.2-1.9-1.1C157.3,146.2,156.8,147,157,147.7z"/>
				<path d="M145.1,147.7c0.2,0.8,1.1,1.3,2,1.1c0.9-0.2,1.5-1,1.2-1.9c-0.2-0.8-1.1-1.3-2-1.1C145.5,146,144.9,146.9,145.1,147.7z"
					/>
				<path class="st8" d="M153.2,147.7c1.4,2.1,3.1,4.7,3.1,4.7s-0.9,2.2-4,2.2c1.3-0.5,2.7-1.3,2.2-3
					C153.9,150,153.2,147.7,153.2,147.7z"/>
				<g>
					<path class="st10" d="M161.5,144.3c0,0,0,0.1,0,0.2c0.1,0.4-0.2,0.7-0.6,0.8c-1.1,0.2-3.4,0-4.3-1.9c-0.2-0.3,0-0.7,0.4-0.9
						c0.4-0.1,0.8,0,1,0.3c0.7,1.4,2.6,1.1,2.7,1.1C161,143.8,161.3,144,161.5,144.3z"/>
				</g>
				<g>
					<path class="st10" d="M142,143.7c0,0-0.1,0.1-0.1,0.2c-0.1,0.4,0.1,0.8,0.6,0.9c1.1,0.3,3.6,0.3,4.7-1.6c0.2-0.4,0.1-0.8-0.3-1
						c-0.4-0.2-0.8-0.1-1.1,0.3c-0.8,1.4-2.9,0.9-2.9,0.9C142.6,143.2,142.2,143.4,142,143.7z"/>
				</g>
				<path class="st7" d="M168.1,140.9l-6-10l-12.8-6.3l-19.7,8.4l4.3,13.9c0.9-6.5,4.2-5.1,6.6-6.9c2.4-1.8,3.5-4.8,8.6-1.9
					c0,0,4.4-2.5,6.4,1.4c1.5,3.1,4.4,2,6.7,2.3c2.7,0.3,1.6,3.6,3.3,3.6L168.1,140.9z"/>
				<g>
					<path class="st9" d="M134.8,143.9c1.5,2,1.3,4.6-0.5,5.8c-1.8,1.2-4.5,0.4-6-1.6c-1.5-2-1.3-4.6,0.5-5.8
						C130.6,141.1,133.3,141.8,134.8,143.9z"/>
					<g>
						<path class="st8" d="M132,148.5c0.1,0,0.2,0,0.2-0.1c1.1-0.7,1.5-1.8,1.2-2.8c-0.4-1.1-1.5-1.8-2.6-1.8
							c-0.3,0-0.6,0.3-0.6,0.6c0,0.3,0.3,0.5,0.6,0.5c0.6,0,1.3,0.5,1.5,1c0.2,0.6-0.1,1.1-0.7,1.6c-0.3,0.2-0.3,0.5-0.1,0.8
							C131.6,148.5,131.8,148.5,132,148.5z"/>
					</g>
				</g>
				<g>
					<path class="st8" d="M156.6,159.8c-0.1,0-0.2,0-0.3-0.1c-5.1-2.7-8.9-0.1-9,0c-0.3,0.2-0.6,0.1-0.8-0.1
						c-0.2-0.2-0.1-0.6,0.1-0.7c0.2-0.1,4.5-3.1,10.2,0c0.3,0.1,0.4,0.5,0.2,0.7C157,159.7,156.8,159.8,156.6,159.8z"/>
				</g>
			</g>
			<g id="v_4_">
				<path class="st11" d="M122.7,231.6c6.4,2.3,18.7,3,25.5,3c9.8,0,15.1-0.7,19.7-3.5c-0.1-14.3-1.2-46.6-7.3-61.9
					c0,0-4.4-1.9-9.5-2.1c0,0-1.1,11.2-14.4-0.8c-5.7-2-16.3,1.2-16.3,1.2C111.8,176.4,118.3,215.2,122.7,231.6z"/>
			</g>
			<g>
				<g>
					<path class="st12" d="M133.6,199.8c-1.7,2.4-2.6,16-1.5,16.1c13.6,3.2,37.7-23.5,37.7-23.5l-3.5-6.1
						C166.2,186.3,150.4,191,133.6,199.8z"/>
					<path class="st12" d="M116.9,180c2.2,8.2,7.1,29.3,15.2,35.9l7.6-12.6c0,0-2.5-24.3-8.2-33.5C127,162.7,113.2,166.6,116.9,180z
						"/>
				</g>
			</g>
			<path class="st12" d="M165.2,163.7c0,0,22.5,37.2,6.3,47.6c-6.3-1-9.4-7.8-10.4-16.4c-1.7-16.1-2.8-29.9-2.8-29.9L165.2,163.7z"
				/>
		</g>
	</g>
	<g>
		<g>
			<path d="M52,190.6c-12.8,6.6-23.3,35.3,17.5,65c31.5,23,54,14.9,61.9,2.5c5.9-9.4,9.8-19.5-12-41.9
				C97.5,193.7,73.5,179.5,52,190.6z"/>
			<path class="st13" d="M48.8,257.3c0,0-17.3,0.9-34.8-10.7c2.2-11,13.4-11.8,13.4-11.8l24.6,4.4c0,0,1.9,0.1,3.9,7.6
				C57.6,253.4,48.8,257.3,48.8,257.3z"/>
			<path class="st9" d="M40.8,210.6c0,0-6.8,15.6-10.7,24.9c-1.6,3.7-7.2,13.7-15.4,11.5c-8.3-5.5,2.1-23.3,22.6-39.5
				C39.7,209.9,40.8,210.6,40.8,210.6z"/>
			<g>
				<g>
					<g>
						<path class="st9" d="M63,230.7l10.5-1.5l-0.8,9c0,0-5.3,8.9-10.4,7.4c-5-1.5-2.6-5.5-2.6-5.5L63,230.7z"/>
					</g>
				</g>
			</g>
			<g>
				<path class="st9" d="M81.9,216c-1.7,10.7-10.4,18.3-19.4,17.1c-9-1.2-15-10.9-13.3-21.6c1.7-10.7,10.4-18.3,19.4-17.1
					C77.7,195.7,83.6,205.4,81.9,216z"/>
				<g>
					<path d="M71.8,212.1c-0.1-0.1-0.3-0.1-0.4,0c-2,0.4-3.7-1.1-3.7-1.1c-0.2-0.2-0.6-0.2-0.8,0c-0.2,0.2-0.2,0.6,0,0.8
						c0.1,0.1,2.2,1.9,4.8,1.4c0.3-0.1,0.5-0.4,0.4-0.7C72,212.3,71.9,212.2,71.8,212.1z"/>
				</g>
				<g>
					<path d="M52.1,212.1c0,0-0.1,0.1-0.1,0.2c-0.1,0.3,0.1,0.6,0.4,0.7c2.5,0.7,4.1-0.9,4.1-1c0.2-0.2,0.2-0.6,0-0.8
						c-0.2-0.2-0.6-0.2-0.8,0c-0.1,0.1-1.2,1.2-2.9,0.7C52.5,211.8,52.2,211.9,52.1,212.1z"/>
				</g>
				<path class="st8" d="M60.3,217.4c-0.8,0.9-1.4,1.7-2.1,2.3c-0.3,0.2-0.3,0.5-0.1,0.8c0.7,1,2.7,1.7,3.9,2.1
					c0.2,0.1,0.3-0.2,0.1-0.3c-1.2-0.8-1.8-1.5-2-1.9c-0.1-0.2-0.1-0.4-0.1-0.6c0.2-0.5,0.6-1.4,0.8-2.1
					C60.8,217.3,60.5,217.2,60.3,217.4z"/>
				<path d="M85.6,215.1c-10.7-0.4-24.7-9.6-26.4-14.6c1.5-6.3,6.8-9.9,13.2-7.5C78.8,195.2,89.3,207,85.6,215.1z"/>
				<path d="M61.6,203c0,0-6.4,6-12.8,7.4c2.3-7,3.9-12.3,7.7-14c3.9-1.7,8.1-2,8.1-2L61.6,203z"/>
				<g>
					<path class="st9" d="M79.4,214.4c-2,1.7-2.4,4.4-0.9,5.9c1.5,1.5,4.4,1.4,6.4-0.4c2-1.7,2.4-4.4,0.9-5.9
						C84.3,212.5,81.4,212.7,79.4,214.4z"/>
					<g>
						<path class="st8" d="M81.1,219.6c-0.1,0-0.2-0.1-0.2-0.1c-0.9-1-1.1-2.1-0.5-3c0.6-1,1.9-1.5,3-1.3c0.3,0.1,0.5,0.4,0.4,0.7
							c-0.1,0.3-0.4,0.5-0.7,0.4c-0.6-0.1-1.4,0.2-1.7,0.7c-0.3,0.5-0.2,1.1,0.4,1.7c0.2,0.2,0.2,0.6,0,0.8
							C81.6,219.6,81.4,219.6,81.1,219.6z"/>
					</g>
				</g>
				<path d="M69.4,215.1c0,0.8-0.7,1.4-1.5,1.4c-0.8,0-1.5-0.6-1.5-1.4c0-0.8,0.7-1.4,1.5-1.4C68.7,213.7,69.4,214.3,69.4,215.1z"/>
				<path d="M56.9,215.1c0,0.8-0.7,1.4-1.5,1.4c-0.8,0-1.5-0.6-1.5-1.4c0-0.8,0.7-1.4,1.5-1.4C56.2,213.7,56.9,214.3,56.9,215.1z"/>
				<ellipse class="st14" cx="61.8" cy="227.4" rx="3" ry="2.8"/>
			</g>
			<g>
				<path class="st9" d="M140.2,384.6c0,0-29.7-17.8-50-17.7c0,2.9-14.4,8.5-15.9,11.2c12.6,4.6,60.3,12.6,62.5,14.5
					c1.5,1.3,8.6,6.4,11.2,14.8c0,0,3.4,3.3,5.6-0.6c1.1-2-6.3-23-6.3-23L140.2,384.6z"/>
				<path class="st9" d="M90.2,366.8c0.4-12.5,0.2-45-4.4-66.3l-19.9-4.2l-7.1-1.7c0,0-8.1,54.3,15.4,83.4
					C77.5,378.5,90.7,368.2,90.2,366.8z"/>
				<path class="st15" d="M152.8,386.3l9.5,5.9l-0.9,1.7l-9.7-3.9c-1.4,5,5.3,12.6,5.3,12.6c-0.7,3.6-4.5,11.8-7.7,13.7
					c-3.3-0.8-1.1-8.9-1.1-8.9c1.2-0.2,4.1-3.6,4-5.4c-1.5-7.2-6.6-13-12.1-17.2C140,384.6,145.3,377.2,152.8,386.3z"/>
			</g>
			<g>
				<path class="st9" d="M72.5,432.5c0,0-3.2-42.3-16.2-56.8c-2.4,1.8-16.2,1.1-19.3,1.8c7.6,18.5,25.7,51.1,25.5,53.9
					c-0.1,1.9-1.3,8.3-11.5,14.3c0,0,0.3,5.4,5,4.4c2.4-0.5,19.8-11.9,19.8-11.9L72.5,432.5z"/>
				<path class="st9" d="M56.3,375.7c5-11.7,18.3-41.2,21.8-62.7l-22.7-9.7l-6-3.8c0,0-11.2,33.2-12.5,78.1
					C39.8,379,56.3,377.1,56.3,375.7z"/>
				<path class="st15" d="M74.1,444.2l-3.5,10.1l-2-0.4l1.4-9.7c-5.6,0.1-11.7,8.1-11.7,8.1c-4,0.4-13.4-0.8-16.3-3.1
					c0-3.2,9-3.4,9-3.4c0.5,1,4.9,2.6,6.7,2.1c7.1-3.3,11.7-9.5,14.6-15.5C72.3,432.3,81.5,435,74.1,444.2z"/>
			</g>
			<g>
				<g>
					<g>
						<g>
							<path class="st16" d="M106.4,366.6c-2.5-7.7-2.6-60-24.4-74.9l-37.6,3.7c-8.7,13-13.5,47.7-10.6,75.6
								C51.5,376.8,74.8,375.8,106.4,366.6z"/>
						</g>
					</g>
				</g>
			</g>
			<g>
				<g>
					<g>
						<path class="st2" d="M43.9,286.7c0-7.6-7.1-19.1-3.7-26.8c2.5-6.2,7.4-20.2,12.7-21.1c2.2-0.4,5-0.8,7.5-0.8
							c0,0-1.6,6.5,2,6.7c6.8,0.5,10.3-7.6,10.3-7.6c3.7-0.3,16.4,3.2,16.4,4.5c0,10-3.2,25.8-6,36.6c-0.5,5.5-0.2,9.7,0.4,12.9
							c1.1,3.2,3.5,4.4,3.5,5.1c0,0-27.7,9-43.7,0.9C43.3,297.2,43.9,291.9,43.9,286.7z"/>
					</g>
				</g>
			</g>
			<g>
				<polygon class="st12" points="69.5,295.6 29.2,307.9 15.9,258 56.2,245.8 				"/>
				<polygon class="st17" points="75.8,297.4 33.4,307.4 19.7,257.6 62.1,247.6 				"/>
				<polygon class="st14" points="73.6,307.5 28.8,308.1 28,256.4 72.8,255.8 				"/>
				<polygon class="st15" points="68.2,301.9 25.1,308.7 15.9,258 59,251.3 				"/>
				<polygon class="st12" points="54.8,275.7 28.4,279.8 27.1,272.4 53.5,268.3 				"/>
				<polygon class="st14" points="33.3,254.4 46.1,246.3 48.2,251.1 				"/>
				<polygon class="st18" points="38.7,306.6 41,311.9 56.5,303.8 				"/>
			</g>
			<g id="c_8_">
				<path class="st9" d="M63.2,288.4l-1.5-0.3c0,0-3.6-7.7-7.2-5.1c-1.1,0.8,2.3,1.4,2.4,4.5c0,0.9-2.6,2.3-8.3-0.8
					c-5.1-2.6-8.1,5.5,1.7,8.8c6.9,2.3,15.2-1.7,15.2-1.7L63.2,288.4z"/>
			</g>
			<path class="st9" d="M63,288.4l19.4-10c0,0,5.8-4.6,13.9,3.3c-2.2,5.2-9.9,10.4-33.4,13C63.3,291.4,63,288.4,63,288.4z"/>
			<path class="st13" d="M89.1,241.8c0,0,10.8,15.5,7.2,40c-10.8,3.9-14.1-5-14.1-5l-7.5-20.6c0,0-1.7-7.3,3.9-12.6
				C83.5,238.9,89.1,241.8,89.1,241.8z"/>
			<g>
				<g>
					<g>
						<g>
							<g>
								<path class="st9" d="M37.8,203.9c-0.6,1.7-1.1,4.7-2.8,5.5l3.7,3.3c5.9-1.6,9.1-8.2,9.4-8.9c0.7-1.8,1.2-2.5,1-2.8
									c-0.2-0.2-1.8-1.1-3,1.4c-1.4,3.2-3.6,0.2,1.2-5.7c1.2-1.5,1.3-4.9-0.4-4.1C45.1,193.6,40.7,196.3,37.8,203.9z"/>
							</g>
						</g>
					</g>
				</g>
			</g>
		</g>
	</g>
	<g>
		<rect x="350.7" y="249.9" class="st14" width="58.9" height="6.1"/>
		<rect x="347.6" y="244.1" class="st14" width="58.9" height="6.1"/>
		<rect x="348.7" y="241.2" class="st14" width="58.9" height="3.1"/>
		<rect x="351.8" y="238.1" class="st14" width="58.9" height="3.1"/>
		<rect x="345.1" y="233.2" class="st14" width="58.9" height="4.9"/>
		<rect x="348.7" y="226.6" class="st14" width="58.9" height="6.7"/>
		<polygon class="st2" points="371.8,233.7 390.9,233.7 393.3,238.7 		"/>
		<polygon class="st2" points="353.9,246.5 375.3,246.5 359.2,251.1 		"/>
		<polygon class="st2" points="348.7,228.4 343.8,229.9 348.7,230.5 366.9,229.9 		"/>
		<polygon class="st2" points="398.8,226.6 407.6,226.6 413.6,230.5 407.4,228.1 		"/>
		<rect x="376.1" y="252.2" class="st2" width="33.4" height="0.4"/>
		<rect x="348.7" y="243.7" class="st2" width="33.4" height="0.4"/>
		<rect x="352.3" y="242.5" class="st2" width="19.3" height="0.4"/>
		<rect x="374.2" y="231" class="st2" width="33.4" height="0.4"/>
		<rect x="377.8" y="229.8" class="st2" width="19.3" height="0.4"/>
	</g>
	<g>
		
			<rect x="416.4" y="232.7" transform="matrix(-1 -1.224647e-16 1.224647e-16 -1 891.6507 471.5294)" class="st14" width="58.9" height="6.1"/>
		
			<rect x="419.5" y="226.9" transform="matrix(-1 -1.224647e-16 1.224647e-16 -1 897.9217 459.8958)" class="st14" width="58.9" height="6.1"/>
		
			<rect x="418.4" y="224" transform="matrix(-1 -1.224647e-16 1.224647e-16 -1 895.5944 451.011)" class="st14" width="58.9" height="3.1"/>
		
			<rect x="415.3" y="220.9" transform="matrix(-1 -1.224647e-16 1.224647e-16 -1 889.4768 444.8743)" class="st14" width="58.9" height="3.1"/>
		
			<rect x="422" y="216" transform="matrix(-1 -1.224647e-16 1.224647e-16 -1 902.9364 436.9474)" class="st14" width="58.9" height="4.9"/>
		
			<rect x="418.4" y="209.4" transform="matrix(-1 -1.224647e-16 1.224647e-16 -1 895.5944 425.4217)" class="st14" width="58.9" height="6.7"/>
		<polygon class="st2" points="454.1,216.5 435.1,216.5 432.7,221.5 		"/>
		<polygon class="st2" points="472,229.3 450.7,229.3 466.8,233.8 		"/>
		<polygon class="st2" points="477.2,211.2 482.1,212.7 477.2,213.3 459,212.7 		"/>
		<polygon class="st2" points="427.2,209.4 418.4,209.4 412.3,213.3 418.6,210.9 		"/>
		<rect x="416.4" y="235" class="st2" width="33.4" height="0.4"/>
		<rect x="443.8" y="226.5" class="st2" width="33.4" height="0.4"/>
		<rect x="454.3" y="225.3" class="st2" width="19.3" height="0.4"/>
		
			<rect x="416.4" y="247.4" transform="matrix(-1 -1.224647e-16 1.224647e-16 -1 891.6507 501.0013)" class="st14" width="58.9" height="6.1"/>
		
			<rect x="419.5" y="241.6" transform="matrix(-1 -1.224647e-16 1.224647e-16 -1 897.9217 489.3678)" class="st14" width="58.9" height="6.1"/>
		
			<rect x="418.4" y="238.7" transform="matrix(-1 -1.224647e-16 1.224647e-16 -1 895.5944 480.483)" class="st14" width="58.9" height="3.1"/>
		
			<rect x="418.4" y="253.2" transform="matrix(-1 -1.224647e-16 1.224647e-16 -1 895.5944 509.4218)" class="st14" width="58.9" height="3.1"/>
		<polygon class="st2" points="472,244 450.7,244 466.8,248.6 		"/>
		<rect x="416.4" y="249.8" class="st2" width="33.4" height="0.4"/>
		<rect x="443.8" y="241.3" class="st2" width="33.4" height="0.4"/>
		<rect x="454.3" y="240.1" class="st2" width="19.3" height="0.4"/>
		<rect x="418.4" y="213.8" class="st2" width="33.4" height="0.4"/>
		<rect x="428.8" y="212.6" class="st2" width="19.3" height="0.4"/>
	</g>
	<path class="st14" d="M119.9,283.7l10.2,16.2c0,0,31.9-6.1,45.4,4.1c-1.5-11.5-8.5-23.6-17.2-27.2
		C137.6,275.3,119.9,283.7,119.9,283.7z"/>
	<path class="st14" d="M429.3,309.3l-15.6,11.9c0,0-27.7-16-44.2-10.7c5.6-10.3,16.8-19.5,26.3-20
		C415.8,295.8,429.3,309.3,429.3,309.3z"/>
	<path class="st14" d="M188.9,316.3l-3.5,19.3c0,0,33.2,15.4,56.8-1.8c-2.9-4.9-2.1-17.3,4.3-25.8
		C234.7,304.8,207.7,325,188.9,316.3z"/>
	<path class="st14" d="M218.4,399.7l27,14.3c0,0,39-0.2,46.4-17.2c-5.2-3-16.1-4.5-22.6-13C255.1,399,226.3,388,218.4,399.7z"/>
	<g>
		<ellipse class="st4" cx="77.6" cy="60.1" rx="35.7" ry="33.1"/>
		<path class="st17" d="M81.7,60.1c0,2.1-1.8,3.8-4.1,3.8c-2.3,0-4.1-1.7-4.1-3.8c0-2.1,1.8-3.8,4.1-3.8
			C79.9,56.3,81.7,58,81.7,60.1z"/>
		<path class="st17" d="M77.2,59.9L77.2,59.9c-1.1,0-2.1-0.9-2.1-1.9v-22c0-1.1,0.9-1.9,2.1-1.9l0,0c1.1,0,2.1,0.9,2.1,1.9v22
			C79.2,59,78.3,59.9,77.2,59.9z"/>
		<path class="st17" d="M75.7,58.9l0.2-0.2c0.6-0.8,1.8-1,2.7-0.4l15.8,10.7c0.9,0.6,1,1.7,0.4,2.5l-0.2,0.2c-0.6,0.8-1.8,1-2.7,0.4
			L76.1,61.4C75.2,60.8,75,59.7,75.7,58.9z"/>
	</g>
	<g>
		<path d="M282.4,352.3c0,0,4.9,9.1,2.5,12.1c-2.3,3-7.1,1.2-15.2,3.7c-8.1,2.5-20.8,2.3-20.2-6.4c1.9-3.7,10-5.7,13.3-6.4
			c3.3-0.7,8.9-3.7,8.9-3.7L282.4,352.3z"/>
		<path d="M300.1,352.3c0,0-4.9,9.1-2.5,12.1c2.3,3,7.1,1.2,15.2,3.7c8.1,2.5,20.8,2.3,20.2-6.4c-1.9-3.7-10-5.7-13.3-6.4
			c-3.3-0.7-8.9-3.7-8.9-3.7L300.1,352.3z"/>
		<path class="st10" d="M315.1,224.1c-16,1.8-32.3,1.9-48.7,0.1l-3.7,74.5c0,0,2.1,36.8,4.9,54.1l17.7,0
			c-1.2-20.1,2.2-54.1,2.2-54.1l3.5-42.5l3.5,42.5c0,0,3.5,34,2.4,54.1l18.4,0c2.7-17.3,3.9-54.1,3.9-54.1L315.1,224.1z"/>
		<path class="st10" d="M320.3,153.3c0,0,17.5,7.9,33,13.5l0.5,16.8c-12.7-0.3-37.6-7.3-37.6-7.3L320.3,153.3z"/>
		<polygon class="st4" points="299.5,148.7 277.6,149.6 275.3,169.6 277.7,226.5 300.9,226.2 307,162.5 		"/>
		<path class="st7" d="M274.9,122.4c2.9-3.1,5.2-0.1,9.4-4c4.2-3.9,7.5-6.6,11.1-2.6c3.6,4.1,5.4,4.6,8,4.4c2.6-0.2,2.6,9.7,2.6,9.7
			s10.2-2.4,8.9-9.3c-1.5-7.7-5.3-5.5-7.4-11.7c-2.1-6.2-10.2-9.7-14-8.2c-3.9,1.6-6,3.3-11.7,2c-5.7-1.3-10.6,0.3-10.6,7.1
			c0,6.9-8.7,4.8-5.9,13.4c1.1,3.3,4.1,6.4,5.5,6.1C272.7,129.1,273,124.4,274.9,122.4z"/>
		<rect x="279" y="223.8" class="st19" width="21.6" height="6"/>
		<polygon class="st8" points="282,156.6 288.7,159.6 296.8,156.6 297.7,143.5 281,143.5 		"/>
		<path class="st10" d="M228,176.6c0,0-1.8,9.4-1,37.3h14.3l2-27.1l22.8-13.7l-8.8-19.8C257.3,153.3,231.6,171.9,228,176.6z"/>
		<g>
			<path class="st7" d="M257.3,153.3l0.4,89.1c7.5,5.7,22.1,7.3,22.1,7.3l-2.7-98.7L257.3,153.3z"/>
			<path class="st7" d="M320.9,153.3l-0.4,89.1c-7.5,5.7-22.1,7.3-22.1,7.3l2.7-98.7L320.9,153.3z"/>
		</g>
		<polygon class="st19" points="266.4,162.7 279.1,213.2 277.2,150.1 		"/>
		<polygon class="st19" points="312.5,159.2 299.5,213.8 301.1,151 		"/>
		<path class="st9" d="M289.4,109.3c-21.5-0.5-16.6,26.4-15.1,30.7c0.9,2.3,6.3,11.2,15.1,11.3c8.8-0.1,14.1-9,15-11.3
			C306,135.7,311.7,109.6,289.4,109.3z"/>
		<g>
			<path class="st7" d="M294,126.4c-0.3,0-0.5-0.1-0.8-0.3c-0.4-0.4-0.5-1,0-1.4c0.1-0.1,3.1-3,7.7-2.4c0.6,0.1,1,0.6,0.9,1.1
				c-0.1,0.6-0.6,0.9-1.2,0.9c-3.5-0.4-5.8,1.8-5.8,1.8C294.6,126.3,294.3,126.4,294,126.4z"/>
		</g>
		<g>
			<path class="st7" d="M284.9,126.4c0.3,0,0.5-0.1,0.8-0.3c0.4-0.4,0.5-1,0-1.4c-0.1-0.1-3.1-3-7.7-2.4c-0.6,0.1-1,0.6-0.9,1.1
				c0.1,0.6,0.6,0.9,1.2,0.9c3.5-0.4,5.8,1.8,5.8,1.8C284.3,126.3,284.6,126.4,284.9,126.4z"/>
		</g>
		<path d="M298.9,128.1c0,0.9-0.8,1.6-1.8,1.6c-1,0-1.8-0.7-1.8-1.6c0-0.9,0.8-1.6,1.8-1.6C298.1,126.4,298.9,127.2,298.9,128.1z"/>
		<path d="M283.8,128.1c0,0.9-0.8,1.6-1.8,1.6s-1.8-0.7-1.8-1.6c0-0.9,0.8-1.6,1.8-1.6S283.8,127.2,283.8,128.1z"/>
		<path d="M294.7,142.8c0,0.3,0,0.5-0.1,0.6c-0.5,1.1-2.8-0.2-5.3-0.2c-2.7,0-4.7,1.4-5,0c0-0.1,0-0.3,0-0.4c0-2.1,2.3-3.9,5.2-3.9
			C292.4,138.9,294.7,140.6,294.7,142.8z"/>
		<path class="st8" d="M290.4,129.9c1.4,2.1,3.2,4.6,3.2,4.6s-0.8,2.2-3.9,2.2c1.3-0.5,2.6-1.3,2.1-3
			C291.2,132.1,290.4,129.9,290.4,129.9z"/>
		<path class="st9" d="M276.9,130.1c1.3,2.4,0.6,5.3-1.7,6.3c-2.3,1.1-5.2,0-6.5-2.4c-1.3-2.4-0.6-5.3,1.7-6.3
			S275.5,127.7,276.9,130.1z"/>
		<path class="st9" d="M302.8,130.1c-1.3,2.4-0.6,5.3,1.7,6.3s5.2,0,6.5-2.4c1.3-2.4,0.6-5.3-1.7-6.3
			C307.1,126.6,304.1,127.7,302.8,130.1z"/>
		<path class="st7" d="M272.7,127.4c0.5-4.6,2.1-10.9,7.1-9.4c5.1,1.5,13.6,2.7,11.8-1.1c-1.9-3.8,3.5-2.4,4.7,0
			c1.2,2.4,11.6,6.4,11.2,2.2c-0.3-4.2-7-13.4-19.6-12.5C275.4,107.5,269.8,121.2,272.7,127.4z"/>
		<path class="st8" d="M286.9,145.2l1.5,0.3c0.5,0.1,0.9,0.2,1.3,0.2c0.4,0,0.8,0,1.2-0.1c0.4-0.1,0.9-0.3,1.4-0.4
			c-0.2,0.5-0.5,0.9-1,1.2c-0.5,0.3-1.1,0.5-1.7,0.4c-0.6,0-1.1-0.2-1.6-0.5C287.5,146.1,287.1,145.7,286.9,145.2z"/>
		<path class="st20" d="M294.6,143.4c-0.5,1.1-2.8-0.2-5.3-0.2c-2.7,0-4.7,1.4-5,0c0.9-1,2.8-1.7,5.1-1.7
			C291.8,141.5,293.8,142.3,294.6,143.4z"/>
		<g>
			<polygon class="st7" points="290.8,164.6 294.7,212.6 288.9,218.9 283.1,212.6 287,164.7 			"/>
			<polygon class="st7" points="292.9,159.4 289.1,158.5 285.1,159.6 287,164.8 290.8,164.7 			"/>
			<path class="st14" d="M288.9,158.5c0,0-2.5,3.5-7.1,5.4l-7.6-10.7l3.3-3.6L288.9,158.5z"/>
			<path class="st14" d="M288.9,158.5c0,0,3.7,4,7.3,5.2l6.9-11.5l-3.2-3.5L288.9,158.5z"/>
		</g>
		<path class="st9" d="M404.5,160.6c-2.9,1.1-5.5,2.7-9.1,0.9c0,0-7.4,6-14,10.3c0,0,2.5-12.5,2.5-12.5c2.9-1.5,8-4.7,10.4-7
			c0.6-0.6,1.2-1.3,1.9-1.9c1.5-1.5,2.9-3.3,5.8-3.8c11.3-2.1,12.9-5.3,13.7-5c1.1,0.6,1.2,3.7-3.8,5.5c-4.8,1.7-6.4,3.3-6.4,3.3
			s3,2.4,2.8,4.2C408.1,155.4,407.8,159.3,404.5,160.6z"/>
		<path class="st10" d="M394.5,165.2l-7.8-9.3l-33.9,11l1,16.7C361.6,183.3,383,175.5,394.5,165.2z"/>
		<g>
			<path class="st15" d="M260.4,246h-31.5c-4.4,0-7.9-3.6-7.9-7.9v-10.6c0-4.4,3.6-7.9,7.9-7.9h31.5c4.4,0,7.9,3.6,7.9,7.9V238
				C268.3,242.4,264.8,246,260.4,246z"/>
			<path class="st21" d="M266.4,223.5c0,1.3-1.1,2.3-2.5,2.3c-1.4,0-2.5-1-2.5-2.3s1.1-2.3,2.5-2.3
				C265.2,221.1,266.4,222.2,266.4,223.5z"/>
			<path class="st21" d="M263.1,227.8c0.4-0.5,1.2-0.6,1.8-0.2c0.6,0.4,0.7,1.1,0.2,1.6c-0.4,0.5-1.2,0.6-1.8,0.2
				C262.8,229,262.7,228.3,263.1,227.8z"/>
		</g>
		<g id="c_5_">
			<path class="st9" d="M237.6,213.8l0.2,3c0,0,4.4-0.1,4.5,2.7l-4.1,0.1c0,0-2.5,3,1.1,8.8c1.4,5.7-3.1,3.3-3.4,5.2
				c-0.5,2.8-7.8-1.5-8.7-7.2c-1.2-7.4,1.8-8.8,1.8-8.8l1.2-3.7L237.6,213.8z"/>
		</g>
		<polygon class="st12" points="328.2,126.8 348.3,116.2 342.5,109.8 357.2,95.8 345.5,88.3 334.1,110.7 341.5,115.7 327.3,125.5 		
			"/>
		<polygon class="st12" points="334.8,134.3 361.7,138.9 361.7,129 386.5,126.7 382.1,111.7 353.4,123.9 356,133.6 335.1,132.4 		
			"/>
		<polygon class="st12" points="243.8,138.2 219.4,131.2 224.1,123.1 204.7,111.1 215.4,100.5 233.3,122.1 226.6,129.2 244.4,136.6 
					"/>
		<polygon class="st12" points="254.4,110.5 241.8,101.8 246.3,97.9 237.8,87.4 246.3,83.2 251.9,99.2 246.4,102 255.1,109.6 		"/>
		<polygon class="st12" points="235.8,154.2 221.7,160.5 220.1,155.1 206,157.2 206,148.3 223.8,151 224,156.8 235.3,153.2 		"/>
	</g>
	<polygon id="v-2_3_" class="st9" points="571.4,193.5 571.4,193.5 563.7,193.6 562,210.3 570.9,214.7 580.4,210.4 578.9,193.6 	"/>
	<path d="M557.4,413.1c-6.8,8.7-23.4,3.3-22.8,15.1h35.8c0-2.7-0.5-9.1-1.1-11.6L557.4,413.1z"/>
	<path d="M595.2,413.1c-6.8,8.7-23.4,3.3-22.8,15.1h35.8c0-2.7-0.5-9.1-1.1-11.6L595.2,413.1z"/>
	<path class="st5" d="M545.7,280.7c0,0-4.1,55.5-2.4,67.8c1.7,12.3,7.6,28.2,6.9,69c8.2,1.9,20.2,0,20.2,0s1.8-46.1-6.9-66.8
		c3.5-20,14.9-65.9,14.9-65.9L545.7,280.7z"/>
	<path class="st6" d="M561.3,282.2c0,0,8.3,62.3,12.3,74.1c4.1,11.8,7.6,20.5,14.9,60.7c8.5,0.4,20.7,0.1,20.7,0.1
		s-1.1-49.8-14.3-61.4c-0.4-20.3,2.1-73.1,2.1-73.1L561.3,282.2z"/>
	<g id="v_3_">
		<path id="h-5_1_" class="st15" d="M599.5,211.5c0,0-14.4-4.7-19.2-2.5c-14.9,6.7-18.3,0-18.3,0c-4.8,0.4-19.1,2.5-19.1,2.5
			c0,14.9-1.1,29.8-0.8,41.1c0.2,9.8-1.8,36.5-1.8,36.5s15.9,3.9,30.9,4c15-0.1,30.3-3.8,30.3-3.8s-0.8-27.1-1.5-37.1
			C600.1,240.9,599.5,226.3,599.5,211.5z"/>
	</g>
	<g id="c_18_">
		<path id="c_19_" class="st12" d="M517.3,233.6c5.9-13.1,23.6-21.5,25.6-22.1l4.1,16.9c-8.5,4.6-14.6,9.7-14.6,9.7
			c1,4.7,0.9,9.3,3.8,15.2c0,0-2.5-3.3-5.7-1.3c-3.1,1.9-8.7-2-8.7-2S512.7,243.6,517.3,233.6z"/>
	</g>
	<g id="c_7_">
		<g id="c_14_">
			<g id="c_15_">
				<path id="c_17_" class="st22" d="M520.6,266.8c-0.1,0-0.2,0-0.3,0.1h-0.3c-0.6-0.1-1.2-0.5-1.4-1l-15.8-47.3
					c0-0.1-0.1-0.2-0.1-0.3c0-0.1,0-0.1,0-0.2c0,0,0-0.1,0-0.1c0,0,0-0.1,0-0.1c0.1-0.5,0.5-1,1.1-1.2c0.1,0,0.2,0,0.3-0.1
					c0.1,0,0.2,0,0.3,0h39.9l16,50.3L520.6,266.8L520.6,266.8z"/>
				<path id="c_16_" class="st2" d="M543.9,216.6c0.8-0.2,1.7,0.2,2,1l15.7,47.2l0,0.1c0.3,0.8-0.2,1.6-1.1,1.9l0,0
					c-0.8,0.2-1.7-0.2-2-1l-15.8-47.3C542.6,217.7,543.1,216.9,543.9,216.6z"/>
			</g>
		</g>
		<path id="c_13_" class="st9" d="M513.8,246.7c-0.1-0.1-0.3-0.1-0.5-0.2c0,0,0,0,0.1-0.1c1-1.4,0.9-3-0.1-3.7
			c-0.2-0.1-0.4-0.2-0.6-0.2c0.3-1,0-2-0.7-2.5c-0.3-0.2-0.7-0.3-1-0.3c0.4-1,0.1-2.1-0.8-2.6c-1.1-0.7-2.6-0.2-3.5,1
			c-0.8,1.2-0.7,2.7,0.4,3.3c0.3,0.2,0.6,0.3,0.9,0.3c-0.7,1.3-0.6,2.7,0.4,3.3c0.2,0.1,0.4,0.2,0.6,0.2c-0.3,1,0,2,0.7,2.5
			c0.3,0.2,0.6,0.3,0.9,0.3c-0.4,0.9-0.1,1.8,0.6,2.3c0.9,0.6,2.2,0.2,2.9-0.8C514.9,248.5,514.7,247.2,513.8,246.7z"/>
		<path class="st9" d="M562.8,243.7l-3.6-2c0,0-1-4.8-6.8-4.9c0.7,2,1.6,4.9,1.6,4.9s-2.9,2.1-9.7-1.5c-6.7-1.4-3.8,3.1-6,3.4
			c-3.3,0.5,2.4,6.4,9,7.3c8.6,1.2,9.6-0.5,9.6-0.5l4.9,1.6L562.8,243.7z"/>
		<path id="c_12_" class="st12" d="M599.9,249.2c-12.1-0.8-36.4-6.8-36.4-6.8c-3.3,4.7-2.4,11-2.4,11c18.9,15.3,47.2,20.3,55.9,16.6
			c7.9-3.4,2.3-48.3-17.7-58.5L599.9,249.2z"/>
	</g>
	<path class="st2" d="M535.8,223.8c0.7,1.6,2.5,2.4,3.9,1.9c1.5-0.6,2.1-2.3,1.5-3.9c-0.7-1.6-2.5-2.4-3.9-1.9
		C535.8,220.5,535.1,222.2,535.8,223.8z"/>
	<path class="st2" d="M530.7,223.3c0.4,1,1.5,1.5,2.4,1.1c0.9-0.3,1.3-1.4,0.9-2.3c-0.4-1-1.5-1.5-2.4-1.1
		C530.7,221.3,530.3,222.3,530.7,223.3z"/>
	<rect x="384.4" y="334.8" class="st6" width="81.1" height="93.3"/>
	<rect x="448.8" y="312.8" class="st2" width="83" height="115.4"/>
	<g>
		<rect x="415.6" y="349.5" class="st22" width="84.8" height="78.6"/>
		<rect x="426.6" y="362.4" class="st0" width="39.4" height="14.9"/>
		<polygon class="st23" points="471.5,389.1 486.6,396.8 494.9,382.9 479.8,375.2 		"/>
		<path class="st1" d="M481.9,394c0,5.1-4.4,9.2-9.9,9.2c-5.4,0-9.9-4.1-9.9-9.2c0-5.1,4.4-9.2,9.9-9.2
			C477.5,384.9,481.9,389,481.9,394z"/>
	</g>
	<g>
		<g>
			<g>
				<g>
					<path class="st9" d="M584.4,181.4c-1.6,11.9-11,20.6-21.1,19.4c-10.1-1.2-16.9-11.7-15.3-23.6c1.6-11.9,11-20.6,21.1-19.4
						C579.1,159,586,169.5,584.4,181.4z"/>
					<g>
						<path d="M575.3,177.8c-0.1-0.1-0.3-0.1-0.5-0.1c-2.5,0.3-4.4-1.7-4.4-1.8c-0.3-0.3-0.7-0.3-1-0.1c-0.3,0.2-0.3,0.7-0.1,1
							c0.1,0.1,2.4,2.6,5.7,2.2c0.4,0,0.7-0.4,0.6-0.8C575.6,178.1,575.5,177.9,575.3,177.8z"/>
					</g>
					<g>
						<path d="M551.3,175.5c-0.1,0.1-0.1,0.1-0.1,0.2c-0.2,0.3,0,0.7,0.4,0.9c2.9,1.1,5.1-0.7,5.2-0.8c0.3-0.3,0.3-0.7,0.1-1
							c-0.3-0.3-0.7-0.3-1-0.1c-0.1,0.1-1.6,1.3-3.7,0.5C551.8,175.2,551.5,175.3,551.3,175.5z"/>
					</g>
					<path class="st8" d="M560.6,182.9c-1,1-1.9,2-2.9,2.5c-0.3,0.2-0.4,0.6-0.3,0.9c0.8,1.3,3.1,2.4,4.5,3c0.2,0.1,0.4-0.2,0.2-0.3
						c-1.4-1.2-2-2-2.3-2.5c-0.1-0.2-0.1-0.5,0-0.7c0.3-0.5,0.9-1.6,1.3-2.5C561.3,182.9,560.8,182.7,560.6,182.9z"/>
					<path d="M572,181.2c-0.1,0.9-1,1.6-2,1.5c-1-0.1-1.8-0.9-1.7-1.9c0.1-0.9,1-1.6,2-1.5C571.3,179.4,572.1,180.2,572,181.2z"/>
					<path d="M556.7,179.8c-0.1,0.9-1,1.6-2,1.5c-1-0.1-1.8-0.9-1.7-1.9c0.1-0.9,1-1.6,2-1.5C556.1,178,556.8,178.8,556.7,179.8z"/>
					<path d="M547.8,182.9c0,0,2.2,6.1,3.8,7.9c0.3-2.8,7-1.1,9.9-0.9c5.3,0.4,10.6-4,12.4,2.4c6.7,0.3,10.7-13.6,10.7-13.6
						c4.2,13.6-4.9,26.2-22.3,25.8C552,204.3,546,192.9,547.8,182.9z"/>
					<path class="st14" d="M561.9,192c2.4-0.1,4.5,1.1,4.5,2.7c0.1,1.6-2.4,1.8-4.8,1.9c-2.4,0.1-4,0-4-1.6
						C557.5,193.4,559.5,192.1,561.9,192z"/>
				</g>
			</g>
		</g>
		<path d="M588.9,169.1c-0.7-11.6-12.7-13.8-12.7-13.8s2.4-1.2,1.2-4.6c-1.6,1.3-3.8,2-5.9,2.1c-14.4,0.6-22.9,4-20.7,9
			c0.8,1.8-9,4.1-3,15.6c0.6-1.6,1.4-7.1,3.9-8.7c2.6-1.6,1.6,2.9,7.7,1.3c6.2-1.5,9.9-4.5,14.9-2.8c4,1.6,10.8,14.9,10.8,15.9
			C585.4,180.9,589.2,174.2,588.9,169.1z"/>
	</g>
	<g>
		<g>
			<g>
				<path class="st9" d="M583.8,180.3c-2.3,2-2.7,5-0.9,6.7c1.8,1.7,5,1.5,7.3-0.5c2.3-2,2.7-5,0.9-6.7
					C589.3,178.1,586,178.4,583.8,180.3z"/>
				<g>
					<path class="st8" d="M585.8,186.2c-0.1,0-0.2-0.1-0.3-0.2c-1.1-1.1-1.3-2.4-0.6-3.5c0.7-1.1,2.1-1.7,3.4-1.5
						c0.4,0.1,0.6,0.4,0.5,0.8c-0.1,0.3-0.4,0.6-0.8,0.5c-0.7-0.1-1.6,0.2-2,0.9c-0.4,0.6-0.2,1.3,0.4,2c0.3,0.3,0.2,0.7,0,0.9
						C586.3,186.3,586,186.3,585.8,186.2z"/>
				</g>
			</g>
		</g>
	</g>
</g>
</svg>
