<?xml version="1.0" encoding="utf-8"?>
<!-- Generator: Adobe Illustrator 23.0.3, SVG Export Plug-In . SVG Version: 6.00 Build 0)  -->
<svg version="1.1" id="Layer_1" xmlns="http://www.w3.org/2000/svg" xmlns:xlink="http://www.w3.org/1999/xlink" x="0px" y="0px"
	 viewBox="0 0 250 100" style="enable-background:new 0 0 250 100;" xml:space="preserve">
<style type="text/css">
	.st0{fill:#3E8ED0;}
</style>
<path class="st0" d="M25.1,58.7c0-1,0.1-2.3,0.3-3.9c0.2-1.6,0.4-3.4,0.7-5.4c0.3-2,0.8-4.2,1.3-6.4c0.5-2.3,1.2-4.6,2.1-6.9
	c0,0-0.6,0-1.5-0.1s-2.1-0.1-3.4-0.1c-0.6,0-1.3,0-2,0c-0.6,0-1.3,0-1.9,0S19.6,36,19.1,36c-0.4,0-0.8,0-1.1,0c0,0-0.2,0.3-0.4,0.8
	c-0.3,0.5-0.7,1.1-1.2,1.8c-0.2,0.4-0.5,0.8-0.8,1.2s-0.6,1-1,1.5c-0.7,1-1.6,2-2.5,2.8c0,0-1.4,0.5-2.8,1s-2.7,1-2.7,1
	S5.2,51.4,4,57c1.5,0.4,2.2,0.7,2.2,0.7c-1.2-0.1-2.8,0-4.1,0.1l-1,4.4c2.3,0.1,4.7,0.2,7.4,0.3c-0.1-1.1-0.1-2.3,0.1-3.4
	c0.1-0.6,0.3-1.2,0.5-1.7c0.2-0.6,0.5-1.1,0.8-1.6c0.4-0.5,0.8-0.9,1.3-1.3c0.5-0.4,1-0.7,1.6-0.9c0.9-0.4,1.7-0.5,2.6-0.4
	c0.8,0.1,1.6,0.3,2.4,0.6c1.5,0.6,2.7,1.8,3.5,3.1c0.4,0.7,0.8,1.6,1,2.5c0.3,0.9,0.4,1.9,0.6,2.8c0,0.4,0.1,0.8,0.1,1.3
	c7.4,0.6,15.2,1.5,22.8,2.5c0-1,0.1-1.9,0.2-2.9c0.1-0.6,0.3-1.3,0.6-2c0.2-0.4,0.3-0.8,0.5-1.2C40.4,59.3,32.9,58.7,25.1,58.7z
	 M19.7,37.7l6.4,0.3l-2.2,7.1c0,0-4.9-0.5-8.9,0L19.7,37.7z M22.9,55.3c-0.2-0.4-0.5-0.8-0.8-1.2c-0.4-0.5-0.8-0.9-1.3-1.3
	c-0.5-0.4-1.1-0.8-1.8-1.1c-0.7-0.3-1.5-0.5-2.4-0.5c-0.2,0-0.4,0-0.7,0c-0.7,0-1.4,0.1-2.2,0.2c-0.4,0.1-0.8,0.2-1.3,0.3
	c0.5-0.2,1-0.4,1.5-0.6c0.7-0.2,1.4-0.4,2.1-0.5c0.4,0,0.7-0.1,1.1-0.1s0.8,0,1.1,0.1c0.7,0.1,1.4,0.4,2.1,0.9s1.3,1.1,1.8,2
	c0.3,0.4,0.5,0.9,0.6,1.4c0.1,0.2,0.1,0.4,0.2,0.7C22.9,55.4,22.9,55.3,22.9,55.3z M24.2,48.6c-1-0.2-3-0.6-5.4-0.7l0.1-0.9
	c0.3,0,0.7,0,1.3,0c1.2,0,2.8,0,4.2,0.2C24.3,47.6,24.2,48.1,24.2,48.6z M37.2,61c-4.1,0.2-8.9,0.4-12,0.4c0-0.4,0-0.9,0-1.3
	c0.1,0,0.2,0,0.3,0c3.1,0,9.8,0.1,15.9,0.7C40.2,60.9,38.7,61,37.2,61z M61.2,63.4c0.3,1.1,0.5,2.2,0.6,3.2c0.1,0.6,0.1,1.2,0.1,2
	c0,0.1,0,0.1,0,0.2c2.2,0.5,4.3,1,6.3,1.5l0.5-7c0,0-3-0.7-8.1-1.5C60.9,62.3,61.1,62.9,61.2,63.4z M15.9,54.3
	c-2.4-0.4-4.5,0.9-5.6,3.1c-0.2,0.4-0.4,0.9-0.5,1.4c-0.2,0.6-0.3,1.2-0.3,1.9c0,0.5,0,1.1,0.1,1.7c0,0.1,0,0.2,0,0.2
	c0.1,0.5,0.2,1,0.3,1.6c0.1,0.6,0.4,1.1,0.6,1.7c0.3,0.5,0.6,1,0.9,1.4c0.4,0.4,0.8,0.8,1.2,1.1c0.7,0.5,1.4,0.8,2.1,1.1
	c0.7,0.2,1.4,0.3,2.1,0.2c0.9-0.1,1.8-0.6,2.5-1.2c1.3-1.1,2.3-2.9,2.5-5c0-0.2,0-0.4,0-0.7c0-1.5-0.6-4.2-1.6-5.5
	C19.2,56.1,17.2,54.5,15.9,54.3z M17.5,62.4c0,0.2,0,0.5-0.1,0.7c0,0.3-0.1,0.6-0.2,0.9c-0.2,0.5-0.4,0.9-0.6,1.3
	c-0.3,0.3-0.6,0.6-1,0.7s-0.8,0.1-1.3,0c-0.4-0.1-0.7-0.3-1-0.6c-0.3-0.3-0.5-0.7-0.7-1.2c-0.2-0.4-0.2-0.9-0.3-1.4
	c0-0.1,0-0.1,0-0.2c0-0.6,0-1.3,0.1-2s0.3-1.3,0.5-1.8s0.5-0.9,0.7-1.2c0.3-0.3,0.6-0.5,1-0.6s0.8-0.1,1.1,0.1
	c0.9,0.4,1.4,1.3,1.6,2.5c0.1,0.4,0.1,0.8,0.1,1.2C17.6,61.3,17.5,61.9,17.5,62.4z M76.5,54.1c0.1-0.9,0.3-1.9,0.5-2.8h0.1
	c3.2,0.9,5.9,1.8,8.2,2.6c4.6,1.6,7.4,2.7,7.4,2.7c-3.5-1.9-6.9-3.7-10.3-5.3c-1.6-0.8-3.3-1.5-4.9-2.1c0.1-0.6,0.3-1.1,0.4-1.7
	c0-0.1,0.1-0.3,0.1-0.4c5.4,2.1,9,3.7,9,3.7c-3-1.8-5.9-3.5-8.7-4.9c0.1-0.5,0.2-1,0.4-1.5c0.2-1,0.5-2,0.7-3
	c0.4-1.9,0.8-3.4,1.1-4.6c0.3-1.1,0.4-1.8,0.4-1.8c-7.5-3.2-16.1-5.5-23.8-7c-2.6-0.5-5.1-0.9-7.4-1.3c-2.3-0.4-4.5-0.6-6.4-0.9
	c-1.9-0.2-3.6-0.4-5-0.5c-2.9-0.3-4.6-0.4-4.6-0.4c-0.3,0.9-0.6,1.9-1,2.9c-0.3,1-0.6,2.1-0.9,3.3c-0.3,1.1-0.6,2.3-0.9,3.5
	c-0.3,1.2-0.5,2.4-0.8,3.6c-0.3,1.2-0.5,2.4-0.8,3.6c-0.3,1.2-0.6,2.3-0.8,3.4c-0.3,1.1-0.5,2.2-0.7,3.2s-0.4,2-0.5,2.9
	c-0.3,1.8-0.5,3.3-0.7,4.3s-0.2,1.6-0.2,1.6c2.1,0.1,4.2,0.2,6.2,0.3s4,0.2,5.9,0.4c1.9,0.1,3.7,0.3,5.5,0.4
	c1.3,0.1,2.6,0.3,3.9,0.4c0.4,0,0.7,0.1,1.1,0.1c0.2,0,0.4,0,0.5,0.1c-0.4,0.3-0.8,0.7-1.1,1.2c-0.4,0.5-0.7,1-0.9,1.6
	c-0.2,0.5-0.4,1-0.5,1.5s-0.2,1.1-0.2,1.6c0,0.4,0,0.9,0,1.3c0,0.2,0,0.4,0.1,0.5c0.1,0.6,0.3,1.3,0.5,1.9s0.5,1.2,0.8,1.8
	c0.3,0.5,0.5,0.9,0.9,1.3c0.3,0.4,0.6,0.8,1,1.2c0.4,0.4,0.7,0.7,1.1,0.9c1.2,0.8,2.5,1.2,3.8,1c2.7-0.4,5.1-3.1,5.6-6.4
	c0.1-0.4,0.1-0.9,0.1-1.3c0-1.5-0.5-4.1-1.4-5.7c-0.1-0.2-0.2-0.4-0.3-0.5c-0.2-0.3-0.6-0.7-0.9-1c0.6,0.1,1.3,0.2,1.9,0.3
	c1.1,0.2,2.1,0.3,3.1,0.5c0.8,0.1,1.6,0.3,2.3,0.4c0.7,0.1,1.4,0.3,2.1,0.4c0.7,0.1,1.3,0.3,1.8,0.4c0.6,0.1,1.1,0.2,1.6,0.4
	c1,0.2,1.9,0.4,2.6,0.6c1.4,0.3,2.2,0.6,2.2,0.6c-0.1-0.8,0-2.1,0.2-3.7c0.1-0.8,0.2-1.7,0.3-2.7c0-0.4,0.1-0.9,0.1-1.3
	c5.5,1.2,9.1,2.1,9.1,2.1c-3-1.3-6-2.5-8.9-3.6C76.5,54.3,76.5,54.2,76.5,54.1z M56.1,67.4c0,0.1,0,0.2-0.1,0.3c0,0.1,0,0.2-0.1,0.3
	c-0.1,0.2-0.1,0.4-0.2,0.6c-0.1,0.2-0.2,0.4-0.3,0.6s-0.2,0.4-0.3,0.6c-0.2,0.3-0.5,0.6-0.7,0.8c-0.3,0.2-0.6,0.3-1,0.4
	c-0.3,0-0.6,0-0.9-0.1c-0.2-0.1-0.4-0.2-0.6-0.3c-0.2-0.1-0.4-0.3-0.6-0.5c-0.2-0.2-0.4-0.5-0.6-0.8c-0.2-0.3-0.4-0.7-0.5-1.2
	c-0.1-0.3-0.1-0.5-0.2-0.8c0-0.2-0.1-0.4-0.1-0.6c0-0.1,0-0.2,0-0.3c0-0.3,0-0.6,0-0.8c0-0.3,0-0.5,0-0.8c0-0.2,0.1-0.5,0.1-0.7
	c0.1-0.4,0.3-0.8,0.5-1.2c0.1-0.3,0.3-0.6,0.5-0.8c0.4-0.6,0.9-1,1.4-1.3c0.1-0.1,0.3-0.1,0.4-0.1c0.4-0.1,0.8,0,1.2,0.1h0.1
	c0.5,0.2,0.9,0.6,1.2,1.1c0.2,0.3,0.3,0.5,0.4,0.9c0.1,0.3,0.2,0.6,0.2,1c0,0.3,0.1,0.5,0.1,0.8c0,0.3,0,0.6,0.1,0.9
	c0,0.3,0.1,0.7,0.1,1C56.1,66.7,56.1,67,56.1,67.4z M75.8,41.9c-0.2,0.8-0.3,1.6-0.5,2.4c-8-3.9-15-6.3-19.7-7.7
	c0.3,1.1,0.6,2.1,0.9,3.2C63,41.7,69.6,44,75,46c-0.1,0.4-0.1,0.7-0.2,1.1c-0.1,0.3-0.1,0.7-0.2,1c-0.8-0.3-1.5-0.6-2.3-0.8
	c-3.3-1.2-6.5-2.2-9.5-3.1c-3-0.9-5.9-1.6-8.7-2.2c-2.7-0.6-5.3-1.1-7.6-1.5s-4.5-0.8-6.3-1c0.8,1.6,1.6,3.3,2.3,4.9
	c4.1,0.5,8.3,1.2,12.3,1.9c4.1,0.7,8,1.6,11.8,2.5c2.7,0.6,5.2,1.3,7.6,1.9c-0.1,0.6-0.2,1.3-0.2,2c0,0.3-0.1,0.6-0.1,0.8
	c-11.1-3.7-20.6-5.3-26.7-6c0.6,1.3,1.1,2.6,1.6,3.9c8.8,0.8,17.9,2.5,24.9,3.9c-0.1,0.8-0.2,1.5-0.2,2.2c-0.1,1.4-0.2,2.5-0.1,3.1
	c0,0-1-0.3-2.9-0.7c-0.5-0.1-1-0.2-1.6-0.3s-1.2-0.3-1.9-0.4c-0.7-0.1-1.4-0.3-2.2-0.4c-0.8-0.1-1.7-0.3-2.6-0.5
	c-1.6-0.3-3.3-0.5-5.2-0.8c-0.3,0-0.6-0.1-0.9-0.1c-1.6-0.2-3.2-0.4-5-0.7c-0.2,0-0.3,0-0.5-0.1c-1.9-0.2-4-0.5-6.2-0.7
	c-1.1-0.1-2.2-0.2-3.4-0.3s-2.4-0.2-3.6-0.3c-1.2-0.1-2.5-0.2-3.7-0.3c-1.3-0.1-2.6-0.2-3.9-0.2c0,0,0.2-1.1,0.5-2.9
	c0.2-0.9,0.4-1.9,0.7-3.1c0.3-1.2,0.6-2.5,0.9-3.8c0.3-1.4,0.6-2.8,1-4.2c0.4-1.5,0.8-2.9,1.3-4.4c0.5-1.4,1-2.8,1.5-4.2
	c0.5-1.3,0.9-2.6,1.4-3.7c0,0,2.5,0,6.5,0.4c2,0.2,4.3,0.4,7,0.8c2.6,0.3,5.5,0.8,8.5,1.4c6,1.2,12.3,2.9,18,5.4
	C77,36.5,76.5,38.8,75.8,41.9z M24.4,39.9l0.4-1.1h-4.5l-1.8,3.4l2.5-2.3L24.4,39.9z M15.6,57.7c-0.1,0-0.1,0-0.2,0
	c-0.2,0-0.5,0.1-0.7,0.2c-0.3,0.2-0.6,0.5-0.8,0.9s-0.4,0.9-0.5,1.4c-0.1,0.3-0.1,0.5-0.2,0.8c0,0.3-0.1,0.6-0.1,0.9
	c0,0.1,0,0.2,0,0.2c0,0.2,0,0.4,0,0.6c0,0.1,0,0.3,0.1,0.4c0,0.2,0.1,0.4,0.2,0.5h0.1h0.1c0.1,0,0.1-0.1,0.1-0.1c0-0.1,0-0.2,0-0.3
	s0-0.3,0-0.4c0.1-1,0.5-2.2,1-3c0.2-0.3,0.4-0.6,0.6-0.8c0.2-0.1,0.3-0.2,0.5-0.2h0.1c0,0,0.1,0.1,0.2,0.1c0,0,0.1,0,0.1,0.1h0.1
	c0.1,0,0.1,0,0.2-0.1c0-0.1,0-0.1,0-0.2c0-0.1,0-0.2-0.1-0.3C16.2,58.1,15.9,57.8,15.6,57.7z M54.3,62.7L54.3,62.7
	c-0.1-0.5-0.5-0.9-0.9-0.9h-0.1c-0.3,0-0.6,0.1-0.9,0.4c-0.3,0.2-0.6,0.6-0.8,1.1s-0.4,1-0.5,1.6c0,0.3-0.1,0.6-0.1,1
	c0,0.2,0,0.4,0,0.6c0,0.1,0,0.3,0,0.4c0,0,0,0,0,0.1c0,0.4,0.1,0.9,0.2,1.4c0.1,0.2,0.1,0.4,0.3,0.5h0.1h0.1c0.1,0,0.1-0.1,0.1-0.2
	c0-0.3-0.1-0.5-0.1-0.8s0-0.6,0.1-0.9c0.1-0.9,0.4-1.9,0.7-2.6c0.2-0.4,0.4-0.7,0.6-1c0.2-0.2,0.4-0.3,0.6-0.3l0,0
	c0.1,0,0.2,0.1,0.3,0.1h0.1h0.1c0.1,0,0.1,0,0.2-0.1c0-0.1,0.1-0.1,0.1-0.2c0-0.1-0.1-0.2-0.1-0.4L54.3,62.7z"/>
<g>
	<path d="M90.7,44.5v-2h9.5v2H90.7z M94.6,56.4v-11h1.5v11H94.6z"/>
	<path d="M111.5,56.4h-1.8l-3.1-6.6l-0.1-0.2c0,0,0,0,0,0c0,0-0.1,0-0.1,0c0,0,0,0,0,0c0,0-0.1,0-0.1,0c-0.1,0-0.2,0.1-0.3,0.1
		c0,0-0.1,0-0.1,0c0,0,0,0,0,0c0,0-0.1,0-0.1,0c0,0,0,0,0,0c0,0-0.1,0-0.1,0c0,0-0.1,0-0.1,0c0,0,0,0,0,0c0,0-0.1,0-0.1,0
		c0,0,0,0,0,0c0,0-0.1,0-0.1,0c0,0,0,0-0.1,0c0,0-0.1,0-0.1,0h-2v6.5h-1.5v-14h8.9c0,0.2,0,0.3,0,0.5c0,0.5,0,1-0.1,1.5
		c-0.2,1.3-0.7,2.5-1.5,3.5c-0.1,0.1-0.1,0.2-0.2,0.3c0,0,0,0.1-0.1,0.1c0,0,0,0,0,0c0,0-0.1,0.1-0.1,0.1c0,0,0,0-0.1,0.1
		c0,0,0,0,0,0c-0.1,0.1-0.1,0.1-0.2,0.2c0,0-0.1,0.1-0.1,0.1c0,0,0,0,0,0c0,0-0.1,0-0.1,0.1c0,0,0,0,0,0c0,0,0,0,0,0l0.2,0.4
		L111.5,56.4z M107.8,46.4c0.4-0.6,0.8-1.3,1-2h-5.6v3.5h2c0.5,0,1-0.1,1.5-0.4C107,47.2,107.4,46.9,107.8,46.4z"/>
	<path d="M113,56.4v-14h1.5v14H113z M113,42.4v14h1.5v-14H113z M114.5,42.5h-1.4v13.9h1.4V42.5z"/>
	<path d="M125.7,42.5v13.9h-1.5v-9.1l-2.1,2.7l-0.5,0.7l-0.6,0.8l-3.3-4.3v0l-1.5-2v-2.9l4.8,6.3L125.7,42.5z M116.1,46.7l1.5,2v7.7
		h-1.5V46.7z"/>
	<path d="M127.2,56.4v-14h1.5v14H127.2z M127.2,42.4v14h1.5v-14H127.2z M128.7,42.5h-1.4v13.9h1.4V42.5z"/>
	<path d="M130.3,44.5v-2h9.5v2H130.3z M134.2,56.4v-11h1.5v11H134.2z"/>
	<path d="M151,42.4v2h-9.5v-2H151z M143.1,54.4h7.9v2h-9.5v-11h1.5v2.4h6.9v2h-6.9V54.4z"/>
	<path d="M152.5,50.1v-2h3.6v2H152.5z M152.5,48.1v2h3.6v-2H152.5z M156.1,48.2h-3.5V50h3.5V48.2z"/>
	<path d="M166.5,51.6h1.7c-0.7,2.8-2.7,4.8-5.1,4.8c-2.7,0-4.9-2.6-5.3-6c0-0.3-0.1-0.7-0.1-1c0-0.3,0-0.7,0.1-1
		c0.4-3.4,2.6-6,5.3-6c2.4,0,4.5,2.1,5.2,5.1h-1.6c-0.6-1.8-1.9-3-3.5-3c-1.8,0-3.4,1.7-3.7,4c0,0.3-0.1,0.6-0.1,1
		c0,0.4,0,0.7,0.1,1c0.4,2.3,1.9,4,3.7,4C164.5,54.4,165.8,53.2,166.5,51.6z"/>
	<path d="M175.1,42.4c3,0,5.4,3.1,5.4,7c0,3.9-2.4,7-5.4,7c-3,0-5.4-3.1-5.4-7S172.1,42.4,175.1,42.4z M171.2,49.4
		c0,2.7,1.7,5,3.8,5c2.1,0,3.8-2.2,3.8-5c0-2.7-1.7-5-3.8-5C173,44.4,171.2,46.7,171.2,49.4z"/>
	<path d="M190.3,54.4v2h-8.3V42.3h1.5v12.1H190.3z"/>
	<path d="M201.4,42.4v2H192v-2H201.4z M193.5,54.4h7.9v2H192v-11h1.5v2.4h6.9v2h-6.9V54.4z"/>
	<path d="M203,44.5v-2h9.5v2H203z M206.9,56.4v-11h1.5v11H206.9z"/>
	<path d="M223.7,42.4v2h-9.5v-2H223.7z M215.8,54.4h7.9v2h-9.5v-11h1.5v2.4h6.9v2h-6.9V54.4z"/>
	<path d="M225.2,56.4v-2h2.2v2H225.2z"/>
	<path d="M238.9,56.4h-1.8l-3.1-6.6l-0.1-0.2c0,0,0,0,0,0c0,0-0.1,0-0.1,0c0,0,0,0,0,0c0,0-0.1,0-0.1,0c-0.1,0-0.2,0.1-0.3,0.1
		c0,0-0.1,0-0.1,0c0,0,0,0,0,0c0,0-0.1,0-0.1,0c0,0,0,0,0,0c0,0-0.1,0-0.1,0c0,0-0.1,0-0.1,0c0,0,0,0,0,0c0,0-0.1,0-0.1,0
		c0,0,0,0,0,0c0,0-0.1,0-0.1,0c0,0,0,0-0.1,0c0,0-0.1,0-0.1,0h-2v6.5H229v-14h8.9c0,0.2,0,0.3,0,0.5c0,0.5,0,1-0.1,1.5
		c-0.2,1.3-0.7,2.5-1.5,3.5c-0.1,0.1-0.1,0.2-0.2,0.3c0,0,0,0.1-0.1,0.1c0,0,0,0,0,0c0,0-0.1,0.1-0.1,0.1c0,0,0,0-0.1,0.1
		c0,0,0,0,0,0c-0.1,0.1-0.1,0.1-0.2,0.2c0,0-0.1,0.1-0.1,0.1c0,0,0,0,0,0c0,0-0.1,0-0.1,0.1c0,0,0,0,0,0c0,0,0,0,0,0l0.2,0.4
		L238.9,56.4z M235.2,46.4c0.4-0.6,0.8-1.3,1-2h-5.6v3.5h2c0.5,0,1-0.1,1.5-0.4C234.5,47.2,234.9,46.9,235.2,46.4z"/>
	<path d="M243.9,42.4c3,0,5.4,3.1,5.4,7c0,3.9-2.4,7-5.4,7c-3,0-5.4-3.1-5.4-7S240.9,42.4,243.9,42.4z M240.1,49.4
		c0,2.7,1.7,5,3.8,5c2.1,0,3.8-2.2,3.8-5c0-2.7-1.7-5-3.8-5C241.8,44.4,240.1,46.7,240.1,49.4z"/>
</g>
</svg>
