<?xml version="1.0" encoding="utf-8"?>
<!-- Generator: Adobe Illustrator 23.0.3, SVG Export Plug-In . SVG Version: 6.00 Build 0)  -->
<svg version="1.1" id="Layer_1" xmlns="http://www.w3.org/2000/svg" xmlns:xlink="http://www.w3.org/1999/xlink" x="0px" y="0px"
	 viewBox="0 0 50 50" style="enable-background:new 0 0 50 50;" xml:space="preserve">
<style type="text/css">
	.st0{fill:#FEFEFE;}
	.st1{fill:#98C1EB;}
	.st2{fill:#99C1EB;}
	.st3{fill:#C4DBF3;}
	.st4{fill:#1B6DC0;}
	.st5{fill:#1C6DC1;}
	.st6{fill:#1D6EC1;}
	.st7{fill:#A5C8ED;}
</style>
<g>
	<path d="M2.1,25.3L2.1,25.3l-1.6,0V29H0v-8h2.1l0,0c0.5,0.1,1,1,1,2.1C3,24.3,2.6,25.2,2.1,25.3z M2.5,23.2c0-0.5-0.2-1-0.5-1
		c0,0,0,0,0,0c0,0,0,0,0,0H0.5v1.9H2C2.3,24.1,2.5,23.7,2.5,23.2z"/>
	<path d="M3.9,23.1l0.4,1.4L3,29H2.3L3.9,23.1z M6.5,29H5.8l-1.4-5.3l-0.4-1.4L4.4,21l0,0l0.4,1.4L6.5,29z"/>
	<path d="M10.4,29H9.7l-1.1-3.8l0-0.1c0,0,0,0,0,0c0,0,0,0,0,0c0,0,0,0,0,0c0,0,0,0,0,0c0,0-0.1,0-0.1,0c0,0,0,0,0,0c0,0,0,0,0,0
		c0,0,0,0,0,0c0,0,0,0,0,0c0,0,0,0,0,0c0,0,0,0,0,0c0,0,0,0,0,0c0,0,0,0,0,0c0,0,0,0,0,0c0,0,0,0,0,0c0,0,0,0,0,0c0,0,0,0,0,0H7.4
		V29H6.9v-8H10c0,0.1,0,0.2,0,0.3c0,0.3,0,0.6,0,0.9c-0.1,0.8-0.3,1.4-0.5,2c0,0,0,0.1-0.1,0.1c0,0,0,0,0,0c0,0,0,0,0,0
		c0,0,0,0,0,0.1c0,0,0,0,0,0c0,0,0,0,0,0c0,0,0,0.1-0.1,0.1c0,0,0,0,0,0c0,0,0,0,0,0c0,0,0,0,0,0c0,0,0,0,0,0c0,0,0,0,0,0l0.1,0.2
		L10.4,29z M9.1,23.3c0.2-0.3,0.3-0.7,0.3-1.2h-2v2h0.7c0.2,0,0.4-0.1,0.5-0.2C8.8,23.8,8.9,23.6,9.1,23.3z"/>
	<path d="M10.4,22.2V21h3.4v1.1H10.4z M11.8,29v-6.2h0.5V29H11.8z"/>
	<path d="M18.7,21c1,0,1.9,1.8,1.9,4s-0.8,4-1.9,4c-1,0-1.9-1.8-1.9-4S17.7,21,18.7,21z M17.4,25c0,1.6,0.6,2.8,1.3,2.8
		c0.7,0,1.3-1.3,1.3-2.8c0-1.6-0.6-2.8-1.3-2.8C18,22.2,17.4,23.4,17.4,25z"/>
	<path d="M21.1,22.2V21h3.3v1.1H21.1z M21.7,24.2h2.4v1.1h-2.4V29h-0.5v-6.2h0.5V24.2z"/>
</g>
<g>
	<g>
		<path class="st0" d="M38.5,34.1c-4.4,0-8.9,0-13.3,0c-0.2,0-0.3,0-0.3-0.3c0-5.8,0-11.7,0-17.5c0-0.2,0-0.3,0.3-0.3
			c8.9,0,17.8,0,26.7,0c0.2,0,0.3,0,0.3,0.3c0,5.8,0,11.7,0,17.5c0,0.2-0.1,0.3-0.3,0.3C47.4,34.1,43,34.1,38.5,34.1z"/>
		<path class="st1" d="M46.6,24.1c-0.7,0.2-1.1,0.7-1.1,1.4c0,0.9,0,1.8,0,2.7c0,1.2-0.5,1.7-1.7,1.7c-2.2,0-4.5,0-6.7,0
			c-1.3,0-2.7,0-4,0c-0.3,0-0.6,0-0.8-0.1c-0.6-0.2-0.9-0.7-0.9-1.3c0-1,0-1.9,0-2.9c0-0.6-0.2-1.1-0.7-1.4
			c-0.1-0.1-0.3-0.1-0.4-0.2c0.5-0.2,0.9-0.4,1.1-0.9c0.1-0.2,0.1-0.5,0.1-0.7c0-0.9,0-1.7,0-2.6c0-1.1,0.5-1.7,1.6-1.7
			c3.7,0,7.3,0,11,0c0.2,0,0.5,0,0.7,0.1c0.6,0.2,0.9,0.7,0.9,1.4c0,1,0,1.9,0,2.9c0,0.7,0.3,1.2,0.9,1.5c0.1,0,0.1,0,0.2,0
			C46.6,24.1,46.6,24.1,46.6,24.1z"/>
		<path class="st2" d="M38.4,33c-0.7,0-1.5,0-2.2,0c-0.1,0-0.3,0-0.3-0.1c0-0.1,0.1-0.1,0.2-0.2c0.6-0.3,0.5-0.8,0.6-1.3
			c0.1-0.7,0.1-0.7,0.7-0.7c0.8,0,1.6,0,2.3,0c0.2,0,0.3,0.1,0.3,0.3c0,0.3,0,0.6,0,0.8c0,0.4,0.2,0.7,0.6,0.9
			c0.1,0,0.2,0.1,0.2,0.2c0,0.1-0.1,0.1-0.2,0.1C39.9,33,39.2,33,38.4,33z"/>
		<path class="st3" d="M46.6,24.1c0,0,0-0.1,0-0.1c0.1,0,0.1,0,0.2,0C46.7,24.1,46.6,24.1,46.6,24.1z"/>
		<path class="st0" d="M41.2,20.6c0,0-0.1,0.1-0.1,0.1c-0.9,1.8-1.9,3.6-2.8,5.5c-0.2,0.5-0.5,1-0.8,1.5c-0.1,0.2-0.2,0.2-0.3,0.1
			c-0.3-0.2-0.5-0.3-0.8-0.5c-0.2-0.1-0.2-0.2-0.1-0.4c0.7-1.4,1.4-2.7,2.1-4.1c0.5-0.9,0.9-1.8,1.4-2.7c0.1-0.2,0.2-0.3,0.4-0.1
			c0.3,0.2,0.6,0.3,0.9,0.5C41.1,20.5,41.2,20.5,41.2,20.6z"/>
		<path class="st0" d="M40.1,24.8c0-0.1-0.1-0.1,0-0.2c0.2-0.4,0.4-0.8,0.6-1.2c0.3,0.5,0.6,1,0.9,1.4c0.4,0.7,0.9,1.5,1.3,2.2
			c0.2,0.2,0.1,0.3-0.1,0.3c-0.2,0.1-0.3,0.1-0.5,0.1c-1.1,0-2.3,0.1-3.4,0.1c-0.1,0-0.1,0-0.2,0c-0.1,0-0.1-0.1,0-0.2
			c0.2-0.3,0.3-0.6,0.5-1c0.1-0.2,0.2-0.4,0.5-0.3c0.3,0,0.6,0,0.8-0.1c0.1-0.1,0.2-0.1,0.1-0.3c-0.1-0.2-0.3-0.4-0.4-0.6
			C40.1,25,40,24.9,40.1,24.8z"/>
		<path class="st0" d="M34.1,21.1c-0.2-0.5-0.2-0.5,0.3-0.5c1.2,0,2.4,0,3.6,0c0.2,0,0.3,0,0.2,0.3c-0.3,0.8-0.8,1.1-1.6,0.9
			c-0.2,0-0.3,0-0.5,0c-0.1,0-0.1,0-0.1,0.1c0.2,0.1,0.2,0.2,0.3,0.4c0.1,0.3,0.2,0.5,0.4,0.7c0.1,0.2,0.1,0.4,0,0.5
			c-0.2,0.3-0.4,0.7-0.6,0.9c-0.1,0-0.2-0.1-0.2-0.2c-0.6-1-1.2-2.1-1.8-3.1C34.1,21.3,34.1,21.2,34.1,21.1z"/>
		<path class="st4" d="M34.1,21.1c0.7,1.2,1.4,2.3,2,3.5c-0.1,0.1-0.1,0.3-0.2,0.4c-0.8-1.3-1.5-2.6-2.3-3.9
			C33.8,21.1,34,21.1,34.1,21.1z"/>
		<path class="st5" d="M38.6,27.4c1-0.1,2-0.1,3-0.1c0.4,0,0.8-0.1,1.1,0c0.1,0.2,0.1,0.3-0.2,0.3c-0.9,0-1.9,0.1-2.8,0.1
			c-0.3,0-0.7,0-1,0c-0.1,0-0.3,0.1-0.2-0.1C38.6,27.5,38.6,27.4,38.6,27.4z"/>
		<path class="st4" d="M36.4,22.4c-0.2-0.1-0.1-0.3-0.3-0.4c0.5-0.2,1,0,1.5-0.1c-0.1,0.4-0.2,0.5-0.6,0.5
			C36.8,22.4,36.6,22.4,36.4,22.4z"/>
		<path class="st6" d="M40.1,24.8c0.2,0.4,0.5,0.7,0.7,1.1c-0.1,0.1-0.2,0-0.3,0c-0.2-0.2-0.3-0.5-0.5-0.7
			C39.8,25,39.9,24.9,40.1,24.8z"/>
		<path class="st7" d="M38.6,27.4c0,0.1,0,0.1-0.1,0.2c-0.1-0.1-0.1-0.3,0.1-0.3C38.6,27.3,38.6,27.3,38.6,27.4z"/>
	</g>
</g>
</svg>
