<?xml version="1.0" encoding="utf-8"?>
<!-- Generator: Adobe Illustrator 23.0.3, SVG Export Plug-In . SVG Version: 6.00 Build 0)  -->
<svg version="1.1" id="Layer_1" xmlns="http://www.w3.org/2000/svg" xmlns:xlink="http://www.w3.org/1999/xlink" x="0px" y="0px"
	 viewBox="0 0 1280 1024" style="enable-background:new 0 0 1280 1024;" xml:space="preserve">
<style type="text/css">
	.st0{fill-rule:evenodd;clip-rule:evenodd;fill:#000044;}
	.st1{fill-rule:evenodd;clip-rule:evenodd;fill:#9EC2C2;}
	.st2{fill:#769191;}
	.st3{fill-rule:evenodd;clip-rule:evenodd;}
	.st4{fill-rule:evenodd;clip-rule:evenodd;fill:#0088FF;}
	.st5{fill-rule:evenodd;clip-rule:evenodd;fill:#0088D1;}
	.st6{fill-rule:evenodd;clip-rule:evenodd;fill:#FFFFFF;}
	.st7{fill-rule:evenodd;clip-rule:evenodd;fill:#FCCF00;}
	.st8{fill-rule:evenodd;clip-rule:evenodd;fill:#89C6C6;}
	.st9{fill:#FFB38A;}
	.st10{fill:#150A0B;}
	.st11{fill:#0E4B5E;}
	.st12{fill:#281416;}
	.st13{fill:#17006A;}
	.st14{fill:#17007E;}
	.st15{fill:#1700DA;}
	.st16{fill:#225E79;}
	.st17{fill:#316D83;}
	.st18{fill:#B15E2B;}
	.st19{fill:#D09271;}
	.st20{fill:#C2EAE8;}
	.st21{fill:#ADCECC;}
	.st22{fill:#170054;}
	.st23{fill:#790E0E;}
	.st24{fill:#523424;}
	.st25{fill:#3F8CCE;}
</style>
<g>
	<g>
		<g>
			<path class="st0" d="M426.8,617.2c63.6,0,115.2,51.4,115.2,114.9c0,63.5-51.6,114.9-115.2,114.9c-63.6,0-115.2-51.4-115.2-114.9
				C311.5,668.6,363.1,617.2,426.8,617.2 M426.8,646.7c-47.3,0-85.6,38.2-85.6,85.4s38.3,85.4,85.6,85.4c47.3,0,85.6-38.2,85.6-85.4
				S474,646.7,426.8,646.7"/>
			<path class="st1" d="M426.8,646.7c47.3,0,85.6,38.2,85.6,85.4s-38.3,85.4-85.6,85.4c-47.3,0-85.6-38.2-85.6-85.4
				S379.5,646.7,426.8,646.7 M426.8,678.9c-29.5,0-53.4,23.8-53.4,53.2c0,29.4,23.9,53.2,53.4,53.2c29.5,0,53.4-23.8,53.4-53.2
				C480.1,702.7,456.2,678.9,426.8,678.9"/>
			<path class="st2" d="M426.8,792.5c-33.4,0-60.6-27-60.6-60.4s27.1-60.4,60.6-60.4c33.4,0,60.6,27.1,60.6,60.4
				S460.2,792.5,426.8,792.5 M426.8,653.9c-43.3,0-78.4,35-78.4,78.2c0,43.2,35.1,78.2,78.4,78.2c43.3,0,78.4-35,78.4-78.2
				C505.2,688.9,470.1,653.9,426.8,653.9"/>
			<path class="st1" d="M416.3,713.2c1.4-0.8,2.9-1.4,4.4-1.8l2.9-37.2h3.2h3.2l2.9,37.2c1.5,0.4,3,1,4.4,1.8l28.4-24.3l2.2,2.2
				l2.2,2.2l-24.4,28.3c0.8,1.4,1.4,2.9,1.8,4.4l37.3,2.9v3.2v3.2l-37.3,2.9c-0.4,1.5-1,3-1.8,4.4l24.4,28.3l-2.2,2.2l-2.2,2.2
				L437.2,751c-1.4,0.8-2.9,1.4-4.4,1.8l-2.9,37.2h-3.2h-3.2l-2.9-37.2c-1.5-0.4-3-1-4.4-1.8l-28.4,24.3l-2.2-2.2l-2.2-2.2
				l24.4-28.3c-0.8-1.4-1.4-2.9-1.8-4.4l-37.3-2.9v-3.2v-3.2l37.3-2.9c0.4-1.5,1-3,1.8-4.4l-24.4-28.3l2.2-2.2l2.2-2.2L416.3,713.2z
				"/>
			<path class="st1" d="M924.8,758c14.3,0,26-11.7,26-26s-11.7-25.9-26-25.9s-26,11.7-26,25.9S910.5,758,924.8,758z"/>
			<path class="st1" d="M943.2,713.7c10.2,10.1,10.2,26.6,0,36.7c-10.2,10.1-26.6,10.1-36.8,0c-10.2-10.1-10.2-26.6,0-36.7
				C916.6,703.6,933,703.6,943.2,713.7z"/>
			<path class="st1" d="M950.8,732.1c0,14.3-11.6,26-26,26c-14.4,0-26-11.6-26-26c0-14.3,11.6-25.9,26-25.9
				C939.2,706.1,950.8,717.8,950.8,732.1z"/>
			<path class="st1" d="M943.2,750.4c-10.2,10.1-26.6,10.1-36.8,0c-10.2-10.1-10.2-26.6,0-36.7c10.2-10.1,26.6-10.1,36.8,0
				C953.3,723.9,953.3,740.3,943.2,750.4z"/>
			<path class="st1" d="M924.8,758c-14.4,0-26-11.6-26-25.9c0-14.3,11.6-26,26-26s26,11.6,26,26C950.8,746.4,939.2,758,924.8,758z"
				/>
			<path class="st1" d="M906.4,750.4c-10.2-10.1-10.2-26.6,0-36.7c10.2-10.1,26.6-10.1,36.8,0c10.2,10.1,10.2,26.6,0,36.7
				C933,760.6,916.6,760.6,906.4,750.4z"/>
			<path class="st1" d="M898.8,732.1c0-14.3,11.6-25.9,26-25.9c14.4,0,26,11.6,26,25.9c0,14.3-11.6,26-26,26
				C910.4,758,898.8,746.4,898.8,732.1z"/>
			<path class="st0" d="M924.8,617.2c63.6,0,115.2,51.4,115.2,114.9c0,63.5-51.6,114.9-115.2,114.9s-115.2-51.4-115.2-114.9
				C809.6,668.6,861.2,617.2,924.8,617.2 M924.8,646.7c-47.3,0-85.6,38.2-85.6,85.4s38.3,85.4,85.6,85.4c47.3,0,85.6-38.2,85.6-85.4
				S972.1,646.7,924.8,646.7"/>
			<path class="st1" d="M924.8,646.7c47.3,0,85.6,38.2,85.6,85.4s-38.3,85.4-85.6,85.4c-47.3,0-85.6-38.2-85.6-85.4
				S877.5,646.7,924.8,646.7 M924.8,678.9c-29.5,0-53.4,23.8-53.4,53.2c0,29.4,23.9,53.2,53.4,53.2c29.5,0,53.4-23.8,53.4-53.2
				C978.2,702.7,954.3,678.9,924.8,678.9"/>
			<path class="st2" d="M924.8,792.5c-33.4,0-60.6-27-60.6-60.4s27.1-60.4,60.6-60.4s60.6,27.1,60.6,60.4S958.2,792.5,924.8,792.5
				 M924.8,653.9c-43.3,0-78.4,35-78.4,78.2c0,43.2,35.1,78.2,78.4,78.2c43.3,0,78.4-35,78.4-78.2
				C1003.2,688.9,968.1,653.9,924.8,653.9"/>
			<path class="st1" d="M914.3,713.2c1.4-0.8,2.9-1.4,4.4-1.8l2.9-37.2h3.2h3.2l2.9,37.2c1.5,0.4,3,1,4.4,1.8l28.4-24.3l2.2,2.2
				l2.2,2.2l-24.4,28.3c0.8,1.4,1.4,2.9,1.8,4.4l37.3,2.9v3.2v3.2l-37.3,2.9c-0.4,1.5-1,3-1.8,4.4l24.4,28.3l-2.2,2.2l-2.2,2.2
				L935.2,751c-1.4,0.8-2.9,1.4-4.4,1.8l-2.9,37.2h-3.2h-3.2l-2.9-37.2c-1.5-0.4-3-1-4.4-1.8l-28.4,24.3l-2.2-2.2l-2.2-2.2
				l24.4-28.3c-0.8-1.4-1.4-2.9-1.8-4.4l-37.3-2.9v-3.2v-3.2l37.3-2.9c0.4-1.5,1-3,1.8-4.4l-24.4-28.3l2.2-2.2l2.2-2.2L914.3,713.2z
				"/>
			<path class="st3" d="M826.4,586.9l20.9-12l87.1,152.4c3.3,5.7,0.3,11.8-4.4,16.4c-4.7,4.7-13.2,1.3-16.5-4.4L826.4,586.9z"/>
			<path class="st4" d="M924.8,585.2c13.4,0,26.4,1.8,38.8,5.1c3.7,1,6.4,3.7,7.4,7.4c1,3.7,0,7.4-2.7,10.1l-168,167.5
				c-2.7,2.7-6.4,3.7-10.2,2.7c-3.7-1-6.5-3.7-7.5-7.4c-3.4-12.3-5.2-25.3-5.2-38.7C777.5,651,843.4,585.2,924.8,585.2z"/>
			<path class="st5" d="M422.3,556.5l228.5-3.3c-43.1,84.5-45.1,145.6,0,196.6H546.2l-7.4-7.3H286.6c-6.4,0-11.9-2.5-16.1-7.3
				c-4.2-4.8-6-10.6-5.1-16.9c11.5-85.8,64.1-149.6,147.7-154C423,563.8,424.2,558.7,422.3,556.5z"/>
			<path class="st4" d="M616.2,738.3h11.6c-35.1-54.6-22.4-115.1,4.6-173.4l-9,0.1c-7.9,0.1-14.6,4.7-17.6,12.1
				c-20,50.4-28,101.6-7.2,149.6C601.7,733.9,608.4,738.3,616.2,738.3z"/>
			<path class="st5" d="M544,744.7h101.9c32.4,0,76,4.6,96.3-29.1l89.4-148.1c11.4-18.8,11.5-33.2,5.3-58.8l-20.4-85
				c-1.8-7.6-2.6-13.5,4.6-13.5h9.4c9,0,16.5,5.9,18.6,14.6l18.1,74.2c3.7,15,16.1,64.6,8.1,77.9L766,760h-6.8h-42.1H541.9
				C542.8,755,543.6,749.9,544,744.7z"/>
			<path class="st4" d="M763.6,758.7H540.1c-1.5,0-2.7,1.2-2.7,2.7v10c0,1.5,1.2,2.7,2.7,2.7h223.5c1.5,0,2.7-1.2,2.7-2.7v-10
				C766.3,759.9,765.1,758.7,763.6,758.7z"/>
			<path class="st5" d="M426.8,580.3c82.4,0,150.5,61.2,161.1,140.5c0.8,5.7-0.8,10.8-4.6,15.1c-3.8,4.3-8.7,6.5-14.4,6.5H284.7
				c-5.7,0-10.7-2.2-14.4-6.5c-3.8-4.3-5.3-9.5-4.6-15.1C276.3,641.5,344.3,580.3,426.8,580.3z"/>
			<path class="st4" d="M426.4,596c70,0,127.8,51.9,136.8,119.2c0.6,4.8-0.7,9.2-3.9,12.9c-0.4,0.5-0.9,0.9-1.3,1.3
				c-17.7-55.7-69.9-96.1-131.6-96.1c-61.7,0-113.9,40.4-131.6,96.1c-0.4-0.4-0.9-0.9-1.3-1.3c-3.2-3.7-4.5-8-3.9-12.9
				C298.7,647.9,356.5,596,426.4,596z"/>
			<path class="st3" d="M418.3,514.4h233.5c2.8,0,5.1,2.3,5.1,5.1v32c0,2.8-2.3,5.1-5.1,5.1H418.3c-2.8,0-5.1-2.3-5.1-5.1v-32
				C413.2,516.7,415.5,514.4,418.3,514.4z"/>
			<path class="st5" d="M249.5,259.4h269c5.2,0,9.5,4.3,9.5,9.5v235.4c0,5.2-4.3,9.5-9.5,9.5h-269c-5.2,0-9.5-4.3-9.5-9.5V268.9
				C240,263.7,244.3,259.4,249.5,259.4z"/>
			<path class="st6" d="M264.9,274h238.2c4.6,0,8.4,3.8,8.4,8.4v86.5c-85,34.4-195.4-45.8-255.1,67.1V282.4
				C256.5,277.8,260.3,274,264.9,274z"/>
			<path class="st7" d="M883.6,442c5.8-0.5,11.6,11.5,12.9,26.8c1.3,15.3-2.4,28.1-8.2,28.6c-5.8,0.5-11.6-11.5-12.9-26.8
				C874.1,455.3,877.8,442.5,883.6,442z"/>
			<path class="st5" d="M881.3,438.3l0.1,0c2.1-0.2,4,1.3,4.2,3.4l6.3,55c0.2,2.1-1.3,4-3.4,4.2l-0.1,0c-19.6,2.2-37.1-10-39-27.2
				C847.4,456.4,861.7,440.6,881.3,438.3z"/>
			<path class="st8" d="M875.1,439.5l8.1,61.6c1.7,0,3.5-0.1,5.3-0.3l0.1,0c2.1-0.2,3.6-2.1,3.4-4.2l-6.3-55
				c-0.2-2.1-2.1-3.6-4.2-3.4l-0.1,0C879.1,438.6,877.1,439,875.1,439.5z"/>
			<path class="st3" d="M826.6,416.9L784.2,406c-2.2-0.6-4.5,0.8-5,3l-1.1,4.3c-0.6,2.2,0.8,4.4,3,5l42.4,10.9c2.2,0.6,4.5-0.8,5-3
				l1.1-4.3C830.1,419.7,828.8,417.4,826.6,416.9z"/>
			<line class="st9" x1="833.3" y1="409.7" x2="833" y2="410"/>
			<g>
				<path class="st10" d="M652.5,714c-1.8,3.9-3.8,7.8-4.7,12.1c-0.9,4.2-0.6,8.9,1.8,12.5c4.6,6.8,14.4,7,22.6,6.5
					c4-0.3,8.1-0.5,12.1-0.8c5.2-0.3,11.2-1.2,13.8-5.7c2.3-4,0.7-9-0.6-13.4c-3-10-4.5-20.4-4.3-30.8c0-3.1,0.2-6.3-1-9.2
					c-1.6-4-5.6-6.7-9.8-7.8c-9.4-2.6-16.6-2.3-19.2,6.7C660.4,694.3,657,704.3,652.5,714z"/>
				<path class="st11" d="M684.7,573.9c2.1,2.3,4.3,4.7,5,7.7c0.7,2.8,0.1,5.7-0.7,8.5c-3.6,12.2-11.6,23.2-12.3,35.8
					c-0.2,3.8,0.2,7.7-0.5,11.4c-0.8,4.2-3,8-5.2,11.7c-2.9,4.8-5.8,9.7-8.6,14.5c-1.8,3-3.6,6.2-3.4,9.7
					c0.4,6.6,7.6,10.3,13.8,12.4c3.6,1.2,8.2,2.1,10.8-0.6c1.1-1.1,1.6-2.7,2.1-4.1c10.9-32.2,21.7-64.3,32.6-96.5
					c2.7-8,5.4-16.9,2.4-24.8c-3.3-8.7-12.4-13.6-20.8-17.7c-7.8-3.8-15.6-7.6-23.4-11.5c-6.8-3.3-16.1-6.3-21.1-0.6
					c-7,8-0.2,14.5,5.5,18.8C669.6,555.3,677.2,565.8,684.7,573.9z"/>
				<path class="st12" d="M668.6,716.9c-2.7,6.8-5.5,14-4.7,21.3c0.2,1.6,0.6,3.3,1.7,4.4c1,1,2.4,1.3,3.7,1.7
					c22.8,6.1,47,7,70.2,2.7c3.4-0.6,6.8-1.4,9.5-3.5c2.7-2.1,4.4-5.9,3-9c-1.7-3.8-6.6-4.8-10.8-5.2c-7.5-0.8-15.1-2-21.7-5.7
					s-11.9-10.4-12-17.9c0-5.7,2.5-12.6-1.8-16.3c-2.1-1.8-5-2-7.7-2.2c-9-0.6-13.7-2.5-19.2,4.1
					C673.9,696.9,671.3,709.8,668.6,716.9z"/>
				<path class="st13" d="M553.6,340.9c-19.4,36.4-29.2,76.9-38.8,117c-0.8,3.5-1.7,7.3-0.7,10.8c1,3.5,4.4,6.6,8,5.8
					c0.1,3.4,0.1,6.9,0.2,10.3c4.9,7,13.5,10.6,22,11.3c8.5,0.7,17-1,25.3-2.8c18-3.8,36.1-7.6,54.1-11.4c3.6-0.8,7.6-1.7,9.9-4.6
					c2.3-2.9,1.5-8.3-2.2-8.9c12.8-2.3,18.2-17.3,21.1-29.9c3-12.7,6-25.3,9-38c4.7-20.1,9.5-40.4,9.8-61.1
					c0.2-15.3-1.3-32.7,9.6-43.5c3.4-3.4,7.9-6,9.6-10.4c2.6-6.9-2.8-13.9-7.8-19.3c-6.5-7-13-14-19.4-21c-1-1.1-2.3-2.3-3.8-2.4
					c-1.8-0.1-3.3,1.3-4.5,2.6c-9.5,10.2-15.5,14.2-27.8,20.2c-10.9,5.3-21,12.2-30.1,20C580.3,299.9,561.9,320.2,553.6,340.9z"/>
				<path class="st14" d="M588.3,368.1c-2.6,22.8,3,47.8,19.9,63.3c11.4,10.4,26.8,15.6,42.2,17.3c15.4,1.7,30.9,0.1,46.3-1.5
					c1-1.8,1.9-3.5,2.9-5.3c3.7,1.3,7.4,2.6,11,3.8c1.3-1.6,2.7-3.2,4-4.8c1.3,3.9,5.9,6.3,9.9,5.2c1.2-10.6,4.4-20.9,9.2-30.4
					c-28-5.5-56.3-11.1-81.8-23.8c-4.1-2-8.6-4.2-12.9-3c3.4-18.6,4.3-37.6,2.7-56.4c-0.7-8.9-2.3-18.3-8-25.2
					C606.5,275.2,590,353.2,588.3,368.1z"/>
				<path class="st15" d="M643.1,321.1c-0.7-4.3-1.6-8.7-3.5-12.7c-2-4.1-6.4-8.1-10.7-6.6c-5.3,1.8-5.4,9.1-4.5,14.6
					c2.6,16.1,5.3,32.1,7.9,48.2c1.9,11.4,3.7,23.4,0,34.3c2.5-0.2,4.9-0.5,7.4-0.7c0.2,2.7,0.3,5.4,0.5,8.1
					c19,5.5,38.6,9.2,58.4,10.8c-0.4-7.3-9.4-10.2-16.5-11.8c-8.5-2-17.3-4.6-25.1-8.5c-9.7-4.9-8.5-6.7-8.6-17.8
					C648.1,359.6,646.3,340.2,643.1,321.1z"/>
				<path class="st15" d="M672.2,294.3c4.2-3,8.1-6.6,11.5-10.5c-3.4-4.3-6.9-8.5-10.3-12.8c-0.5-0.7-1.1-1.3-1.8-1.7
					c-1.4-0.7-3.1,0-4.3,1c-3.1,2.7-3.5,7.6-2,11.4c1.5,3.8,4.5,6.9,7.5,9.8"/>
				<path class="st15" d="M632.3,465.9c-3.5,3.1-8.7,3.1-13.4,2.8c-2.3-0.1-4.7-0.3-6.6-1.5c-1.9-1.2-3.2-3.9-2-5.8
					c1.1-1.9,3.6-2.2,5.8-2.4c3.1-0.2,6.3-0.2,9.2-1.3c2.9-1.1,5.6-3.3,6.3-6.4c2.4-1.4,5.8,0.4,6.7,3.1c0.9,2.6-0.2,5.6-2.1,7.7
					c-1.9,2.1-4.4,3.4-6.8,4.7"/>
				<path class="st16" d="M545.3,519.8c12.1,6.9,26.3,8.7,40.1,10.2c15.4,1.8,30.8,3.6,46.2,5.3c21.3,2.5,45,6.2,58,23.2
					c1.3,1.8,2.7,3.8,4.9,4.3c2.4,0.6,4.7-0.8,7-1.5c2.3-0.7,5.6,0,5.9,2.4c-2.5,2.3-3.9,5.7-3.7,9.1c1.8-0.3,3.5-0.6,5.3-0.9
					c1,4.2-1.7,8.3-4.1,12c-7.3,11.4-11.8,24.6-13,38.1c-0.9,9.6-0.2,19.8-5.2,28.1c-2.3,3.7-5.6,6.7-7.9,10.4
					c-2.1,3.4-3.4,7.3-3.7,11.2c-1,13.2,11.3,26.2,24.5,25.1c13.6-1.1,22.7-14,29.3-25.9c20.1-36.4,34.7-76.2,39.5-117.5
					c0.8-6.9,1.3-13.9-0.8-20.5c-4.7-14.9-20.7-22.6-35.2-28.3c-24.6-9.7-49.6-18.5-75-26.2c-6.9-2.1-13.9-4.1-21.1-4.6
					c-6.4-0.4-12.8,0.4-19.2,1.2c-24.5,3.2-48.9,6.4-73.4,9.6c-11.4,1.5-20.5-0.3-16.5,13.5C529.8,507.3,537.2,515.1,545.3,519.8z"
					/>
				<path class="st17" d="M710.3,517.5c7.3,2.8,14.8,5.7,20.5,11.1c13.7,12.8,12.5,34.9,6.6,52.7c-5.9,17.8-15.4,35-15.3,53.7
					c2.8,2.5,6.7-1.2,8.5-4.5c12.7-24.1,20.9-50.4,24.2-77.4c0.9-7.1,1.2-14.8-2.6-20.9c-3.3-5.2-9.1-8.3-14.6-11
					c-28.4-13.8-64.3-33.2-96-36.6C640.8,498.6,698.4,512.9,710.3,517.5z"/>
				<path class="st9" d="M749.3,442.4c2.8,0.1,5.7,0.2,8.4-0.5c10.5-2.5,16.4-14.4,26.7-17.4c0.6-0.2,1.3-0.3,2-0.2
					c0.9,0.2,1.7,0.9,2.3,1.6c1.7,1.9,3.1,3.9,5.1,5.4c2,1.5,4.8,2.3,7,1.1c2.2-1.2,3-4.7,1-6.2c0.9,2.2,3.9,3.3,6.1,2.2
					c2.2-1.1,3.1-4,2-6.2c1,1.7,3.2,2.6,5.1,2.2c1.9-0.4,3.5-2.2,3.7-4.2c0.3-2.9-2.1-5.3-4-7.5c-2.9-3.2-5.2-6.8-8.2-9.9
					c-3-3.1-6.7-5.7-11-6.2c-3.4-0.4-6.8,0.6-10,1.7c-7.2,2.5-14.2,5.6-20.9,9.3c-5.3,2.9-10.4,6.3-16,8.6
					c-5.6,2.3-11.8,3.7-17.8,2.4c-3.7-0.8-9,18.9-7.3,21.7c1.4,2.4,8.2,1.4,10.9,1.4C739.4,442.1,744.3,442.2,749.3,442.4z"/>
				<path class="st9" d="M770.8,213.1c2.7,4.3,8.8,5.8,10.9,10.5c-7.4,2.8-13.4,9-16,16.5c-3.1,8.9-1.8,19.7-8.3,26.6
					c-5.7,6.2-15.5,6.5-23.7,4.5c-8.2-2-16-5.9-24.4-6.8c-10.5-1.1-21.3,2.9-28.6,10.5c-1.7,1.8-3.7,3.9-6.1,3.5
					c-1.7-0.3-2.8-1.8-3.9-3.1c-4-5.4-8.1-10.8-12.1-16.3c5.8-6.3,9-14.8,8.9-23.3c-0.1-6.6-2.2-13.1-2.6-19.7
					c-1.7-24.1,19.2-45.5,42.8-51.2c18.4-4.4,49.2-2.6,65.2,9C788.8,185.4,762.5,199.7,770.8,213.1z"/>
				<path class="st18" d="M755.4,187.3c1.1,2.9-2.9,5-6,5c-6,0-11.8-2.4-17.9-2.9c-6-0.5-13.1,1.7-15.1,7.4c-1.3,3.8,0,8,0.5,12
					c0.5,4-0.5,8.9-4.2,10.4c-3.3-4.2-2.2-11.1-6.2-14.6c-3.4-3-8.8-2-13-0.2c-3.5,1.5-6.9,3.7-8.6,7.1c-4,8,3.3,17.9,0.4,26.3
					c-1,2.8-3,5.1-5.1,7.3c-2.5,2.7-5.2,5.3-8.6,6.7c-3.4,1.4-7.7,1.3-10.3-1.2c-4.5-4.2-2-11.7-3.2-17.8
					c-1.2-6.4-6.7-11.4-7.9-17.9c-0.7-3.6,0.1-7.2,0.9-10.7c2-9,4.6-18.1,9.4-26c7.9-13,21.7-21.8,36.3-25.8
					c14.7-4,30.3-3.6,45.3-1.1c6.5,1.1,13.2,2.7,18.9,6.1c6.7,4,12.8,10.7,20.6,10c-2.1,1.9-4.6,3.3-7.3,4.1c3.6,1.7,6.9,4.1,9.5,7
					c-1,1.7-3,2.7-5,2.8c2.1,3.5,0.7,9.2-3.9,9.7c-3.3,0.4-7-3.2-10.3-3.7c0.8,0.4,1.7,1.5,2.6,2.1
					C764.9,190,756.5,190.2,755.4,187.3z"/>
				<path class="st19" d="M702.1,224.4c0,0.4-0.6,0.6-0.9,0.4c-0.3-0.2-0.5-0.6-0.6-1c-0.4-1.5-0.8-3.1-0.2-4.5
					c0.5-1.4,2.4-2.5,3.7-1.7c1.1-2.5,0.3-5.7-1.8-7.4c-2.1-1.7-5.4-1.8-7.6-0.3c-1.8,1.2-2.8,3.3-3.6,5.4c-0.6,1.7-1.1,3.5-0.8,5.2
					c0.3,1.5,1.2,2.7,2.1,3.9c1,1.4,2,2.8,3,4.2c1,1.4,2.2,2.8,3.9,2.9c1.7,0,3.1-1.5,3.4-3.2c0.3-1.6-0.2-3.3-0.8-4.9"/>
				<path class="st20" d="M765.7,218.5c2.7-1.3,5.6-2.7,8.6-2.2c4.5,0.7,7.2,5.7,6.9,10.2c-0.2,4.5-2.6,8.6-4.9,12.5
					c-3.9,6.6-7.9,13.2-11.9,19.8c-2.7,4.4-5.6,9-10.1,11.7c-5.5,3.4-12.6,3.3-18.7,1.2c-6.1-2-11.5-5.7-16.9-9.4
					c0.2-3.5,3.7-5.6,6.1-8.1c4.6-4.9,5.5-12.2,4.9-18.9c-1.1-10.4,5-7.9,13.4-9.5C750.9,224.3,758.5,221.8,765.7,218.5z"/>
				<path class="st20" d="M709.7,214.5c7.8,5.8,16,11,24.5,15.7c1.4,0.7,2.6-1.3,1.2-2.1c-8.5-4.7-16.7-9.9-24.5-15.7
					C709.7,211.5,708.5,213.6,709.7,214.5z"/>
				<path class="st20" d="M684.3,236.1c13,8.7,25.7,17.8,38.3,27.2c1.2,0.9,2.4-1.1,1.2-2.1c-12.5-9.4-25.3-18.4-38.3-27.2
					C684.3,233.1,683.1,235.2,684.3,236.1z"/>
				<path class="st21" d="M736.3,241.9c0.2-2.4,0.1-4.9,1.5-6.9c1.6-2.2,4.5-2.9,7.2-3.6c4.7-1.3,9.3-3.2,13.5-5.6
					c0.8-0.4,1.5-0.9,2.4-0.9c2-0.1,3.4,2.2,3.2,4.2c-0.1,2-1.2,3.7-2.1,5.5l-0.2,1.1c0.1,0.4,0.5,0.7,0.8,0.9
					c1.6,1.3,1.5,4,0.2,5.6c-1.3,1.6-3.4,2.4-5.4,2.5c-1.3,0.1-3,0.1-3.6,1.3c-0.3,0.6-0.3,1.2-0.3,1.9c-0.2,6.2-4.9,11.9-11,13.2
					c0.4,1.3,0.6,2.6,0.6,3.9c0,0.5-0.1,1.1-0.5,1.4c-0.6,0.5-1.6,0.2-2.3-0.2c-4.5-2.4-10.9-3.7-9.4-9.5
					C732.3,251.5,736.3,247.9,736.3,241.9z"/>
				<path class="st13" d="M693.8,232.3c2-0.2,4.1-0.4,5.9-1.5c1.7-1.1,2.9-2.8,3.8-4.7c4.8-8.9,5.9-20.3,12.7-27.4
					c8.3-8.7,21.3-7.6,32.8-7.6c9.2,0,18.3-1.1,27.3-3.3c1.7-0.4,3.3-0.9,4.7-2c2.4-1.9,3.4-5.5,3.5-8.8
					c0.4-12.4-8.3-22.8-17.6-29.8c-16.3-12.2-36.3-18.3-56-17.2c-19.7,1.1-39,9.5-54,23.5c-8,7.4-15,16.8-17.2,28
					c-1.4,6.9-0.8,14.2,0.1,21.2c0.8,6.2,1.9,12.5,4.6,18C653.8,239.8,677.7,233.5,693.8,232.3z"/>
				<path class="st22" d="M680,139.4c-12.3,4.3-24,11.2-31.7,21.8c-7.6,10.5-10.6,24.9-5.4,36.9c1.5,3.5,4,7,7.6,8.4
					c4.8,1.9,10.4-0.5,14.1-4.2c7.3-7.3,11.2-17.4,18.7-24.8c6.1-6.1,13.7-8.9,20.1-14.2c5.5-4.6,7.6-12.4,3.8-19.1
					C701.5,134.5,688.7,136.4,680,139.4z"/>
				<path class="st23" d="M699.3,263.3l0.1,1.1l-0.8,0.6c-1.4,0.7-2.9,1.3-4.4,1.7c-3.6-10.6-6-21.6-7.2-32.7
					c-0.1-1.2-0.2-2.4,0.2-3.5c0.8-1.9,5.4-4.5,7.1-2.8c1.1,1-0.2,10.2-0.1,11.9C694.8,247.7,696.4,255.7,699.3,263.3z"/>
				<path class="st24" d="M747.3,203c4.8-2.4,8.8-3,14.1-2.9c2.3,0,4.9-0.7,4.9-3.4l-0.2-0.3c-1.6-0.2-3.1,0.3-4.7,0.3
					c-2,0-3.9-0.2-5.9,0.2c-3.3,0.6-7.3,2.1-9.2,5.1C745.8,202.7,746.6,203.3,747.3,203z"/>
				<path class="st24" d="M748.5,210.2c3.1-1.8,6.4-1.8,9.8-2.4c1.7-0.3,3.8-0.5,4.7-2.2c0.2-0.4-0.1-0.8-0.5-0.7
					c-1.2,0.3-2.1,1-3.2,1.3c-1.2,0.4-2.6,0.5-3.8,0.8C753,207.7,750.5,208.7,748.5,210.2L748.5,210.2z"/>
				<path class="st24" d="M756.6,207.4c-0.3,1.1-0.9,3.7,0.8,4c1.9,0.3,1.9-2.5,1.7-3.7l-0.7-0.7l-0.2,0l-0.8,0.3l-0.2,0.9l0.2,0.6
					l0,0.9l0.2-0.4l-0.1-0.5c-0.1-0.5-0.2-0.9-0.3-1.4H756.6z"/>
				<path class="st24" d="M752.7,211.4c1.3,0.7,2.7,1,4.1,0.9c1.1-0.1,2.7-0.3,3.2-1.4l-0.2-0.4c-0.9,0-1.8,0.6-2.7,0.8
					c-1.4,0.3-2.8,0.1-4.1-0.5C752.6,210.7,752.3,211.2,752.7,211.4z"/>
				<path class="st24" d="M755.6,214c0.7,0,1.3,0,1.9-0.4l-0.2-0.6c-0.6,0-1.1,0.1-1.7,0.1C755.1,213.2,755.1,214,755.6,214z"/>
			</g>
		</g>
	</g>
	<g>
		<path class="st25" d="M284.1,340.5c-0.1-1.8-0.2-4-0.2-6.9c0-2.8,0-6,0-9.5c0.1-3.5,0.3-7.4,0.5-11.2c0.2-4,0.6-8.1,1.2-12.1
			c0,0-0.6,0-1.5-0.2s-2.1-0.2-3.4-0.2c-0.6,0-1.3,0-2,0c-0.6,0-1.3,0-1.9,0c-0.6,0-1.1,0.2-1.6,0.2c-0.4,0-0.8,0-1.1,0
			c0,0-0.2,0.5-0.3,1.4c-0.2,0.9-0.6,1.9-1,3.2c-0.2,0.7-0.4,1.4-0.7,2.1c-0.3,0.7-0.5,1.8-0.8,2.6c-0.6,1.8-1.4,3.5-2.2,4.9
			c0,0-1.3,0.9-2.7,1.8c-1.3,0.9-2.6,1.8-2.6,1.8s-0.7,9.3-1.3,19.2c1.6,0.7,2.3,1.2,2.3,1.2c-1.2-0.2-2.8,0-4.1,0.2l-0.5,7.7
			c2.3,0.2,4.7,0.4,7.5,0.5c-0.2-1.9-0.4-4-0.3-6c0-1.1,0.2-2.1,0.3-3c0.1-1.1,0.4-1.9,0.6-2.8c0.3-0.9,0.7-1.6,1.1-2.3
			s0.9-1.2,1.5-1.6c0.9-0.7,1.6-0.9,2.6-0.7c0.8,0.2,1.6,0.5,2.5,1.1c1.6,1.1,2.9,3.2,3.9,5.4c0.5,1.2,1,2.8,1.3,4.4
			c0.4,1.6,0.6,3.3,0.9,4.9c0,0.7,0.2,1.4,0.3,2.3c7.5,1.1,15.4,2.6,23.2,4.4c-0.1-1.8-0.1-3.3-0.2-5.1c0-1.1,0.1-2.3,0.4-3.5
			c0.2-0.7,0.2-1.4,0.4-2.1C299.5,341.6,291.9,340.5,284.1,340.5z M276.1,303.6l6.4,0.5l-1.3,12.5c0,0-5-0.9-8.9,0L276.1,303.6z
			 M281.5,334.5c-0.3-0.7-0.6-1.4-1-2.1c-0.5-0.9-0.9-1.6-1.5-2.3c-0.6-0.7-1.2-1.4-1.9-1.9s-1.6-0.9-2.5-0.9c-0.2,0-0.4,0-0.7,0
			c-0.7,0-1.4,0.2-2.2,0.4c-0.4,0.2-0.8,0.4-1.3,0.5c0.5-0.4,1-0.7,1.4-1.1c0.7-0.4,1.4-0.7,2-0.9c0.4,0,0.7-0.2,1.1-0.2
			s0.8,0,1.1,0.2c0.7,0.2,1.5,0.7,2.2,1.6s1.4,1.9,2.1,3.5c0.4,0.7,0.6,1.6,0.8,2.5c0.1,0.4,0.1,0.7,0.3,1.2
			C281.5,334.7,281.5,334.5,281.5,334.5z M281.9,322.8c-1-0.4-3.1-1.1-5.5-1.2l0-1.6c0.3,0,0.7,0,1.3,0c1.2,0,2.8,0,4.2,0.4
			C281.9,321,281.9,321.9,281.9,322.8z M296.5,344.5c-4.1,0.4-8.9,0.7-12,0.7c0-0.7-0.1-1.6-0.2-2.3c0.1,0,0.2,0,0.3,0
			c3.1,0,9.8,0.2,16,1.2C299.5,344.4,298,344.5,296.5,344.5z M320.8,348.8c0.4,1.9,0.8,3.9,1,5.6c0.2,1.1,0.2,2.1,0.3,3.5
			c0,0.2,0,0.2,0,0.4c2.3,0.9,4.4,1.8,6.5,2.6l-0.4-12.3c0,0-3.1-1.2-8.3-2.6C320.4,346.8,320.7,347.9,320.8,348.8z M274.3,332.8
			c-2.5-0.7-4.4,1.6-5.2,5.4c-0.2,0.7-0.3,1.6-0.3,2.5c-0.1,1.1-0.2,2.1-0.1,3.3c0.1,0.9,0.1,1.9,0.3,3c0,0.2,0,0.4,0,0.4
			c0.2,0.9,0.3,1.8,0.5,2.8c0.2,1.1,0.5,1.9,0.8,3c0.4,0.9,0.7,1.8,1.1,2.5c0.5,0.7,0.9,1.4,1.3,1.9c0.8,0.9,1.5,1.4,2.2,1.9
			c0.7,0.4,1.4,0.5,2.1,0.4c0.9-0.2,1.7-1.1,2.4-2.1c1.2-1.9,1.9-5.1,1.9-8.8c0-0.4,0-0.7-0.1-1.2c-0.2-2.6-1.1-7.4-2.3-9.7
			C277.8,335.9,275.6,333.1,274.3,332.8z M276.9,347c0,0.4,0.1,0.9,0,1.2c0,0.5,0,1.1-0.1,1.6c-0.1,0.9-0.3,1.6-0.4,2.3
			c-0.3,0.5-0.5,1.1-0.9,1.2c-0.4,0.2-0.8,0.2-1.3,0c-0.4-0.2-0.7-0.5-1.1-1.1c-0.3-0.5-0.6-1.2-0.9-2.1c-0.3-0.7-0.3-1.6-0.5-2.5
			c0-0.2,0-0.2,0-0.4c-0.1-1.1-0.2-2.3-0.1-3.5c0-1.2,0.1-2.3,0.3-3.2c0.1-0.9,0.4-1.6,0.6-2.1c0.3-0.5,0.5-0.9,0.9-1.1
			c0.4-0.2,0.8-0.2,1.1,0.2c1,0.7,1.6,2.3,1.9,4.4c0.1,0.7,0.2,1.4,0.2,2.1C276.9,345.1,276.9,346.1,276.9,347z M335,332.4
			c0-1.6,0.1-3.3,0.2-4.9h0.1c3.3,1.6,6.1,3.2,8.5,4.6c4.8,2.8,7.7,4.7,7.7,4.7c-3.7-3.3-7.4-6.5-11-9.3c-1.7-1.4-3.5-2.6-5.2-3.7
			c0-1.1,0.2-1.9,0.2-3c0-0.2,0.1-0.5,0.1-0.7c5.7,3.7,9.5,6.5,9.5,6.5c-3.2-3.2-6.3-6.1-9.3-8.6c0-0.9,0.1-1.8,0.2-2.6
			c0.1-1.8,0.3-3.5,0.3-5.3c0.2-3.3,0.4-6,0.5-8.1c0.2-1.9,0.2-3.2,0.2-3.2c-7.9-5.6-16.8-9.7-24.7-12.3c-2.7-0.9-5.2-1.6-7.6-2.3
			c-2.4-0.7-4.6-1.1-6.5-1.6c-1.9-0.4-3.7-0.7-5.1-0.9c-2.9-0.5-4.7-0.7-4.7-0.7c-0.2,1.6-0.4,3.3-0.6,5.1c-0.2,1.8-0.3,3.7-0.5,5.8
			c-0.2,1.9-0.3,4-0.5,6.2c-0.2,2.1-0.2,4.2-0.4,6.3c-0.2,2.1-0.2,4.2-0.4,6.3c-0.2,2.1-0.3,4-0.4,6c-0.2,1.9-0.2,3.9-0.3,5.6
			c-0.1,1.8-0.2,3.5-0.1,5.1c-0.1,3.2-0.1,5.8-0.2,7.6c-0.1,1.8,0,2.8,0,2.8c2.1,0.2,4.2,0.4,6.2,0.5c2,0.2,4,0.4,6,0.7
			c1.9,0.2,3.7,0.5,5.6,0.7c1.3,0.2,2.6,0.5,4,0.7c0.4,0,0.7,0.2,1.1,0.2c0.2,0,0.4,0,0.5,0.2c-0.4,0.5-0.7,1.2-1,2.1
			c-0.3,0.9-0.6,1.8-0.7,2.8c-0.1,0.9-0.3,1.8-0.3,2.6c0,0.9-0.1,1.9,0,2.8c0,0.7,0.1,1.6,0.2,2.3c0,0.4,0,0.7,0.2,0.9
			c0.2,1.1,0.5,2.3,0.7,3.3c0.3,1.1,0.6,2.1,1,3.2c0.4,0.9,0.6,1.6,1.1,2.3c0.4,0.7,0.7,1.4,1.2,2.1s0.8,1.2,1.2,1.6
			c1.3,1.4,2.7,2.1,3.9,1.8c2.7-0.7,4.7-5.4,4.8-11.2c0.1-0.7,0-1.6-0.1-2.3c-0.2-2.6-1-7.2-2.1-10c-0.1-0.4-0.3-0.7-0.4-0.9
			c-0.2-0.5-0.7-1.2-1-1.8c0.6,0.2,1.3,0.4,1.9,0.5c1.1,0.4,2.1,0.5,3.2,0.9c0.8,0.2,1.6,0.5,2.4,0.7c0.7,0.2,1.4,0.5,2.2,0.7
			c0.7,0.2,1.3,0.5,1.9,0.7c0.6,0.2,1.1,0.4,1.7,0.7c1,0.4,2,0.7,2.7,1.1c1.4,0.5,2.3,1.1,2.3,1.1c-0.2-1.4-0.3-3.7-0.3-6.5
			c0-1.4,0-3,0-4.7c0-0.7,0-1.6-0.1-2.3c5.7,2.1,9.4,3.7,9.4,3.7c-3.2-2.3-6.3-4.4-9.4-6.3C335,332.8,335,332.6,335,332.4z
			 M316.2,355.8c0,0.2,0,0.4-0.1,0.5c0,0.2,0,0.4-0.1,0.5c-0.1,0.4-0.1,0.7-0.1,1.1c-0.1,0.4-0.2,0.7-0.2,1.1
			c-0.1,0.4-0.2,0.7-0.2,1.1c-0.2,0.5-0.4,1.1-0.6,1.4c-0.3,0.4-0.6,0.5-1,0.7c-0.3,0-0.6,0-0.9-0.2c-0.2-0.2-0.4-0.4-0.6-0.5
			c-0.2-0.2-0.4-0.5-0.7-0.9c-0.2-0.4-0.5-0.9-0.7-1.4c-0.2-0.5-0.5-1.2-0.6-2.1c-0.1-0.5-0.2-0.9-0.3-1.4c0-0.4-0.1-0.7-0.2-1.1
			c0-0.2,0-0.4,0-0.5c0-0.5-0.1-1.1-0.1-1.4c0-0.5-0.1-0.9-0.1-1.4c0-0.4,0-0.9,0-1.2c0.1-0.7,0.2-1.4,0.4-2.1
			c0.1-0.5,0.2-1.1,0.4-1.4c0.3-1.1,0.8-1.8,1.2-2.3c0.1-0.2,0.3-0.2,0.4-0.2c0.4-0.2,0.8,0,1.2,0.2l0.1,0c0.5,0.4,1,1.1,1.3,1.9
			c0.2,0.5,0.4,0.9,0.5,1.6c0.1,0.5,0.3,1.1,0.3,1.8c0,0.5,0.2,0.9,0.2,1.4c0,0.5,0.1,1.1,0.2,1.6c0,0.5,0.2,1.2,0.2,1.8
			C316.1,354.6,316.2,355.1,316.2,355.8z M332.8,311c-0.1,1.4-0.1,2.8-0.2,4.2c-8.5-6.9-15.8-11.1-20.7-13.5
			c0.4,1.9,0.9,3.7,1.3,5.6c6.7,3.3,13.6,7.4,19.3,10.9c-0.1,0.7,0,1.2-0.1,1.9c-0.1,0.5,0,1.2-0.1,1.8c-0.8-0.5-1.6-1.1-2.4-1.4
			c-3.5-2.1-6.8-3.9-9.9-5.4c-3.1-1.6-6.1-2.8-9-3.9c-2.8-1.1-5.4-1.9-7.8-2.6c-2.4-0.7-4.6-1.4-6.4-1.8c1,2.8,2,5.8,2.9,8.6
			c4.2,0.9,8.5,2.1,12.6,3.3c4.2,1.2,8.2,2.8,12.1,4.4c2.8,1.1,5.4,2.3,7.8,3.3c0,1.1,0,2.3,0,3.5c0,0.5,0,1.1,0,1.4
			c-11.6-6.5-21.3-9.3-27.5-10.5c0.8,2.3,1.4,4.6,2.1,6.9c8.9,1.4,18.2,4.4,25.4,6.9c0,1.4,0,2.6,0.1,3.9c0.1,2.5,0.1,4.4,0.3,5.4
			c0,0-1-0.5-3-1.2c-0.5-0.2-1-0.4-1.6-0.5c-0.6-0.2-1.2-0.5-2-0.7c-0.7-0.2-1.4-0.5-2.3-0.7c-0.8-0.2-1.7-0.5-2.7-0.9
			c-1.6-0.5-3.4-0.9-5.3-1.4c-0.3,0-0.6-0.2-0.9-0.2c-1.6-0.4-3.3-0.7-5.1-1.2c-0.2,0-0.3,0-0.5-0.2c-1.9-0.4-4.1-0.9-6.3-1.2
			c-1.1-0.2-2.2-0.4-3.4-0.5c-1.2-0.2-2.4-0.4-3.6-0.5s-2.5-0.4-3.7-0.5c-1.3-0.2-2.6-0.4-3.9-0.4c0,0,0.1-1.9,0.1-5.1
			c0.1-1.6,0.2-3.3,0.3-5.4c0.2-2.1,0.3-4.4,0.4-6.7c0.1-2.5,0.3-4.9,0.5-7.4c0.2-2.6,0.4-5.1,0.8-7.7c0.3-2.5,0.7-4.9,1-7.4
			c0.3-2.3,0.6-4.6,0.9-6.5c0,0,2.5,0,6.6,0.7c2,0.4,4.4,0.7,7.1,1.4c2.6,0.5,5.6,1.4,8.7,2.5c6.2,2.1,12.7,5.1,18.7,9.5
			C333.3,301.5,333.1,305.5,332.8,311z M281,307.5l0.3-1.9l-4.5,0l-1.4,6l2.2-4L281,307.5z M274.4,338.7c-0.1,0-0.1,0-0.2,0
			c-0.2,0-0.5,0.2-0.7,0.4c-0.3,0.4-0.5,0.9-0.7,1.6c-0.2,0.7-0.3,1.6-0.3,2.5c-0.1,0.5,0,0.9-0.1,1.4c0,0.5,0,1.1,0,1.6
			c0,0.2,0,0.4,0,0.4c0,0.4,0,0.7,0.1,1.1c0,0.2,0,0.5,0.1,0.7c0,0.4,0.1,0.7,0.3,0.9l0.1,0h0.1c0.1,0,0.1-0.2,0.1-0.2
			c0-0.2,0-0.4,0-0.5c0-0.2,0-0.5,0-0.7c0-1.8,0.2-3.9,0.6-5.3c0.2-0.5,0.3-1.1,0.5-1.4c0.2-0.2,0.3-0.4,0.5-0.4h0.1
			c0,0,0.1,0.2,0.2,0.2c0,0,0.1,0,0.1,0.2h0.1c0.1,0,0.1,0,0.2-0.2c0-0.2,0-0.2,0-0.4c0-0.2,0-0.4-0.1-0.5
			C275.1,339.4,274.8,338.9,274.4,338.7z M313.8,347.5L313.8,347.5c-0.2-0.9-0.6-1.6-1-1.6h-0.1c-0.3,0-0.6,0.2-0.9,0.7
			c-0.3,0.4-0.5,1.1-0.7,1.9c-0.1,0.9-0.3,1.8-0.3,2.8c0,0.5,0,1.1,0,1.8c0,0.4,0,0.7,0.1,1.1c0,0.2,0,0.5,0,0.7c0,0,0,0,0,0.2
			c0,0.7,0.2,1.6,0.4,2.5c0.1,0.4,0.1,0.7,0.4,0.9h0.1l0.1,0c0.1,0,0.1-0.2,0.1-0.4c0-0.5-0.2-0.9-0.2-1.4c0-0.5-0.1-1.1,0-1.6
			c0-1.6,0.2-3.3,0.4-4.6c0.2-0.7,0.3-1.2,0.5-1.8c0.2-0.4,0.4-0.5,0.6-0.5l0,0c0.1,0,0.2,0.2,0.3,0.2l0.1,0h0.1
			c0.1,0,0.1,0,0.2-0.2c0-0.2,0.1-0.2,0.1-0.4c0-0.2-0.1-0.4-0.1-0.7L313.8,347.5z"/>
		<g>
			<path d="M348,315.5l-0.2-3.5l9.5,0l0.2,3.5L348,315.5z M353.4,336.4l-1.4-19.3l1.5,0l1.4,19.3L353.4,336.4z"/>
			<path d="M370.4,336.4l-1.8,0l-3.9-11.6l-0.1-0.4l0,0h-0.1l0,0l-0.1,0c-0.1,0-0.2,0.2-0.3,0.2l-0.1,0l0,0h-0.1l0,0l-0.1,0h-0.1
				l0,0l-0.1,0l0,0h-0.1c0,0,0,0-0.1,0h-0.1l-2,0l0.8,11.4l-1.5,0l-1.7-24.6l8.9,0c0,0.4,0,0.5,0.1,0.9c0.1,0.9,0.1,1.8,0.1,2.6
				c0,2.3-0.4,4.4-1.1,6.2c-0.1,0.2-0.1,0.4-0.2,0.5c0,0,0,0.2-0.1,0.2l0,0l-0.1,0.2c0,0,0,0-0.1,0.2l0,0c-0.1,0.2-0.1,0.2-0.2,0.4
				l-0.1,0.2l0,0c0,0-0.1,0-0.1,0.2l0,0l0,0l0.3,0.7L370.4,336.4z M365.4,318.9c0.3-1.1,0.6-2.3,0.8-3.5l-5.6,0l0.4,6.2l2,0
				c0.5,0,1-0.2,1.5-0.7C364.7,320.3,365.1,319.8,365.4,318.9z"/>
			<path d="M371.9,336.4l-1.7-24.6l1.5,0l1.7,24.6L371.9,336.4z M370.1,311.8l1.7,24.6l1.5,0l-1.7-24.6L370.1,311.8z M371.6,312
				l-1.4,0l1.7,24.4l1.4,0L371.6,312z"/>
			<path d="M382.9,312l1.7,24.4l-1.5,0l-1.1-16l-1.8,4.7l-0.4,1.2l-0.5,1.4l-3.8-7.6l0,0l-1.8-3.5l-0.4-5.1l5.6,11.1L382.9,312z
				 M373.8,319.4l1.8,3.5l1,13.5l-1.5,0L373.8,319.4z"/>
			<path d="M386.1,336.4l-1.7-24.6l1.5,0l1.7,24.6L386.1,336.4z M384.3,311.8l1.7,24.6l1.5,0l-1.7-24.6L384.3,311.8z M385.9,312
				l-1.4,0l1.7,24.4l1.4,0L385.9,312z"/>
			<path d="M387.7,315.5l-0.2-3.5l9.5,0l0.2,3.5L387.7,315.5z M393.1,336.4l-1.4-19.3l1.5,0l1.4,19.3L393.1,336.4z"/>
			<path d="M408.2,311.8l0.2,3.5l-9.5,0l-0.2-3.5L408.2,311.8z M401.8,332.9l7.9,0l0.2,3.5l-9.5,0l-1.4-19.3l1.5,0l0.3,4.2l6.9,0
				l0.2,3.5l-6.9,0l0.6,8.1H401.8z"/>
			<path d="M410.6,325.4l-0.2-3.5l3.6,0l0.2,3.5L410.6,325.4z M410.4,321.9l0.2,3.5l3.6,0l-0.2-3.5L410.4,321.9z M414,322l-3.5,0
				l0.2,3.2l3.5,0L414,322z"/>
			<path d="M424.9,328l1.7,0c-0.4,4.9-2.1,8.4-4.5,8.4c-2.7,0-5.2-4.6-6.1-10.5c0-0.5-0.2-1.2-0.2-1.8c0-0.5-0.1-1.2,0-1.8
				c0-6,1.9-10.5,4.6-10.5c2.4,0,4.8,3.7,5.8,9l-1.6,0c-0.8-3.2-2.3-5.3-3.9-5.3c-1.8,0-3.2,3-3.2,7c0,0.5,0,1.1,0,1.8
				c0,0.7,0.1,1.2,0.2,1.8c0.7,4,2.4,7,4.2,7C423.2,332.9,424.4,330.8,424.9,328z"/>
			<path d="M432.3,311.8c3,0,5.8,5.4,6.3,12.3c0.5,6.9-1.5,12.3-4.5,12.3c-3,0-5.8-5.4-6.3-12.3
				C427.3,317.3,429.3,311.8,432.3,311.8z M429.3,324.1c0.3,4.7,2.3,8.8,4.4,8.8s3.5-3.9,3.2-8.8c-0.3-4.7-2.3-8.8-4.4-8.8
				C430.5,315.3,429,319.4,429.3,324.1z"/>
			<path d="M449,332.9l0.2,3.5l-8.3,0l-1.8-24.8l1.5,0l1.5,21.3L449,332.9z"/>
			<path d="M458.7,311.8l0.2,3.5l-9.4,0l-0.2-3.5L458.7,311.8z M452.3,332.9l7.9,0l0.2,3.5l-9.4,0l-1.4-19.3l1.5,0l0.3,4.2l6.9,0
				l0.2,3.5l-6.9,0L452.3,332.9z"/>
			<path d="M460.5,315.5l-0.2-3.5l9.5,0l0.2,3.5L460.5,315.5z M465.9,336.4l-1.4-19.3l1.5,0l1.4,19.3L465.9,336.4z"/>
			<path d="M481,311.8l0.2,3.5l-9.5,0l-0.2-3.5L481,311.8z M474.6,332.9l7.9,0l0.2,3.5l-9.5,0l-1.4-19.3l1.5,0l0.3,4.2l6.9,0
				l0.2,3.5l-6.9,0l0.6,8.1L474.6,332.9z"/>
			<path d="M484.3,336.4l-0.2-3.5l2.2,0l0.2,3.5L484.3,336.4z"/>
			<path d="M498,336.4l-1.8,0l-3.9-11.6l-0.1-0.4l0,0H492l0,0l-0.1,0c-0.1,0-0.2,0.2-0.3,0.2l-0.1,0l0,0h-0.1l0,0l-0.1,0h-0.1l0,0
				l-0.1,0l0,0H491c0,0,0,0-0.1,0h-0.1l-2,0l0.8,11.4l-1.6,0l-1.7-24.6l8.9,0c0,0.4,0,0.5,0.1,0.9c0.1,0.9,0.1,1.8,0.1,2.6
				c0,2.3-0.4,4.4-1.1,6.2c-0.1,0.2-0.1,0.4-0.2,0.5c0,0,0,0.2-0.1,0.2l0,0L494,322c0,0,0,0-0.1,0.2l0,0c-0.1,0.2-0.1,0.2-0.2,0.4
				l-0.1,0.2l0,0c0,0-0.1,0-0.1,0.2l0,0l0,0l0.3,0.7L498,336.4z M493,318.9c0.3-1.1,0.6-2.3,0.8-3.5l-5.6,0l0.4,6.2l2,0
				c0.5,0,1-0.2,1.5-0.7C492.4,320.3,492.8,319.7,493,318.9z"/>
			<path d="M501.3,311.8c3,0,5.8,5.4,6.3,12.3c0.5,6.9-1.5,12.3-4.5,12.3s-5.8-5.4-6.3-12.3C496.2,317.3,498.3,311.8,501.3,311.8z
				 M498.3,324.1c0.3,4.7,2.3,8.8,4.4,8.8s3.5-3.9,3.2-8.8c-0.3-4.7-2.3-8.8-4.4-8.8C499.4,315.3,498,319.4,498.3,324.1z"/>
		</g>
	</g>
</g>
</svg>
