<?xml version="1.0" encoding="utf-8"?>
<!-- Generator: Adobe Illustrator 23.0.3, SVG Export Plug-In . SVG Version: 6.00 Build 0)  -->
<svg version="1.1" id="Layer_1" xmlns="http://www.w3.org/2000/svg" xmlns:xlink="http://www.w3.org/1999/xlink" x="0px" y="0px"
	 viewBox="0 0 1366 768" style="enable-background:new 0 0 1366 768;" xml:space="preserve">
<style type="text/css">
	.st0{fill:#3F8CCE;}
	.st1{fill:#C0D8FB;}
</style>
<g>
	<path class="st0" d="M550.2,591.9c-0.3-2.6-0.6-5.8-0.6-10.1c0-4.1,0-8.8,0-13.9c0.3-5.1,1-10.8,1.6-16.4
		c0.6-5.8,1.9-11.8,3.9-17.7c0,0-1.9,0-4.8-0.3c-2.9-0.3-6.8-0.3-11-0.3c-1.9,0-4.2,0-6.5,0c-1.9,0-4.2,0-6.1,0
		c-1.9,0-3.6,0.3-5.2,0.3c-1.3,0-2.6,0-3.6,0c0,0-0.6,0.7-1,2c-0.6,1.3-1.9,2.8-3.2,4.7c-0.6,1-1.3,2-2.3,3.1c-1,1-1.6,2.6-2.6,3.8
		c-1.9,2.6-4.5,5.1-7.1,7.2c0,0-4.2,1.3-8.7,2.6c-4.2,1.3-8.4,2.6-8.4,2.6s-2.3,13.6-4.2,28c5.2,1,7.4,1.8,7.4,1.8
		c-3.9-0.3-9,0-13.2,0.3l-1.6,11.2c7.4,0.3,15.2,0.6,24.2,0.7c-0.6-2.8-1.3-5.8-1-8.8c0-1.6,0.6-3.1,1-4.4c0.3-1.6,1.3-2.8,1.9-4.1
		c1-1.3,2.3-2.3,3.6-3.4c1.3-1,2.9-1.8,4.8-2.3c2.9-1,5.2-1.3,8.4-1c2.6,0.3,5.2,0.7,8.1,1.6c5.2,1.6,9.4,4.7,12.6,7.9
		c1.6,1.8,3.2,4.1,4.2,6.4c1.3,2.3,1.9,4.8,2.9,7.2c0,1,0.6,2,1,3.4c24.2,1.6,49.7,3.8,74.9,6.4c-0.3-2.6-0.3-4.8-0.6-7.4
		c0-1.6,0.3-3.4,1.3-5.1c0.6-1,0.6-2,1.3-3.1C599.9,593.5,575.3,591.9,550.2,591.9z M524.3,538l20.7,0.7l-4.2,18.3
		c0,0-16.1-1.3-28.7,0L524.3,538z M541.8,583.1c-1-1-1.9-2-3.2-3.1c-1.6-1.3-2.9-2.3-4.8-3.4c-1.9-1-3.9-2-6.1-2.8s-5.2-1.3-8.1-1.3
		c-0.6,0-1.3,0-2.3,0c-2.3,0-4.5,0.3-7.1,0.6c-1.3,0.3-2.6,0.6-4.2,0.7c1.6-0.6,3.2-1,4.5-1.6c2.3-0.6,4.5-1,6.5-1.3
		c1.3,0,2.3-0.3,3.6-0.3c1.3,0,2.6,0,3.6,0.3c2.3,0.3,4.8,1,7.1,2.3c2.3,1.3,4.5,2.8,6.8,5.1c1.3,1,1.9,2.3,2.6,3.7
		c0.3,0.6,0.3,1,1,1.8C541.8,583.4,541.8,583.1,541.8,583.1z M543.1,566c-3.2-0.6-10-1.6-17.8-1.8v-2.3c1,0,2.3,0,4.2,0
		c3.9,0,9,0,13.6,0.6C543.1,563.4,543.1,564.7,543.1,566z M590.2,597.7c-13.2,0.6-28.7,1-38.7,1c0-1-0.3-2.3-0.6-3.4
		c0.3,0,0.6,0,1,0c10,0,31.6,0.3,51.7,1.8C599.9,597.6,595,597.7,590.2,597.7z M668.7,604c1.3,2.8,2.6,5.7,3.2,8.2
		c0.6,1.6,0.6,3.1,1,5.1c0,0.3,0,0.3,0,0.6c7.4,1.3,14.2,2.6,21,3.8l-1.3-18c0,0-10-1.8-26.8-3.8C667.4,601.1,668.3,602.7,668.7,604
		z M518.5,580.6c-8.1-1-14.2,2.3-16.8,7.9c-0.6,1-1,2.3-1,3.7c-0.3,1.6-0.6,3.1-0.3,4.8c0.3,1.3,0.3,2.8,1,4.4c0,0.3,0,0.6,0,0.6
		c0.6,1.3,1,2.6,1.6,4.1c0.6,1.6,1.6,2.8,2.6,4.4c1.3,1.3,2.3,2.6,3.6,3.7c1.6,1,2.9,2,4.2,2.8c2.6,1.3,4.8,2,7.1,2.8
		c2.3,0.6,4.5,0.7,6.8,0.6c2.9-0.3,5.5-1.6,7.7-3.1c3.9-2.8,6.1-7.4,6.1-12.8c0-0.6,0-1-0.3-1.8c-0.6-3.8-3.6-10.8-7.4-14.2
		C529.8,585.2,522.7,581.1,518.5,580.6z M526.9,601.4c0,0.6,0.3,1.3,0,1.8c0,0.7,0,1.6-0.3,2.3c-0.3,1.3-1,2.3-1.3,3.4
		c-1,0.7-1.6,1.6-2.9,1.8c-1.3,0.3-2.6,0.3-4.2,0c-1.3-0.3-2.3-0.7-3.6-1.6c-1-0.7-1.9-1.8-2.9-3.1c-1-1-1-2.3-1.6-3.7
		c0-0.3,0-0.3,0-0.6c-0.3-1.6-0.6-3.4-0.3-5.1c0-1.8,0.3-3.4,1-4.7c0.3-1.3,1.3-2.3,1.9-3.1c1-0.7,1.6-1.3,2.9-1.6
		c1.3-0.3,2.6-0.3,3.6,0.3c3.2,1,5.2,3.4,6.1,6.4c0.3,1,0.6,2,0.6,3.1C526.9,598.6,526.9,600,526.9,601.4z M714.5,580
		c0-2.3,0.3-4.8,0.6-7.2h0.3c10.7,2.3,19.7,4.7,27.4,6.7c15.5,4.1,24.9,6.9,24.9,6.9c-11.9-4.8-23.9-9.5-35.5-13.6
		c-5.5-2-11.3-3.8-16.8-5.4c0-1.6,0.6-2.8,0.6-4.4c0-0.3,0.3-0.7,0.3-1c18.4,5.4,30.7,9.5,30.7,9.5c-10.3-4.7-20.3-8.9-30-12.6
		c0-1.3,0.3-2.6,0.6-3.8c0.3-2.6,1-5.1,1-7.7c0.6-4.8,1.3-8.8,1.6-11.8c0.6-2.8,0.6-4.7,0.6-4.7c-25.5-8.2-54.2-14.2-79.7-18
		c-8.7-1.3-16.8-2.3-24.5-3.4c-7.7-1-14.9-1.6-21-2.3c-6.1-0.6-11.9-1-16.5-1.3c-9.4-0.7-15.2-1-15.2-1c-0.6,2.3-1.3,4.8-1.9,7.4
		c-0.6,2.6-1,5.4-1.6,8.5c-0.6,2.8-1,5.8-1.6,9.1c-0.6,3.1-0.6,6.1-1.3,9.2c-0.6,3.1-0.6,6.1-1.3,9.2c-0.6,3.1-1,5.8-1.3,8.8
		c-0.6,2.8-0.6,5.7-1,8.2c-0.3,2.6-0.6,5.1-0.3,7.4c-0.3,4.7-0.3,8.5-0.6,11.1c-0.3,2.6,0,4.1,0,4.1c6.8,0.3,13.6,0.6,20,0.7
		c6.5,0.3,12.9,0.6,19.4,1c6.1,0.3,11.9,0.7,18.1,1c4.2,0.3,8.4,0.7,12.9,1c1.3,0,2.3,0.3,3.6,0.3c0.6,0,1.3,0,1.6,0.3
		c-1.3,0.7-2.3,1.8-3.2,3.1c-1,1.3-1.9,2.6-2.3,4.1c-0.3,1.3-1,2.6-1,3.8c0,1.3-0.3,2.8,0,4.1c0,1,0.3,2.3,0.6,3.4
		c0,0.6,0,1,0.6,1.3c0.6,1.6,1.6,3.4,2.3,4.8c1,1.6,1.9,3.1,3.2,4.7c1.3,1.3,1.9,2.3,3.6,3.4c1.3,1,2.3,2,3.9,3.1
		c1.6,1,2.6,1.8,3.9,2.3c4.2,2,8.7,3.1,12.6,2.6c8.7-1,15.2-7.9,15.5-16.4c0.3-1,0-2.3-0.3-3.4c-0.6-3.8-3.2-10.5-6.8-14.6
		c-0.3-0.6-1-1-1.3-1.3c-0.6-0.7-2.3-1.8-3.2-2.6c1.9,0.3,4.2,0.6,6.1,0.7c3.6,0.6,6.8,0.7,10.3,1.3c2.6,0.3,5.2,0.7,7.7,1
		c2.3,0.3,4.5,0.7,7.1,1c2.3,0.3,4.2,0.7,6.1,1c1.9,0.3,3.6,0.6,5.5,1c3.2,0.6,6.5,1,8.7,1.6c4.5,0.7,7.4,1.6,7.4,1.6
		c-0.6-2-1-5.4-1-9.5c0-2,0-4.4,0-6.9c0-1,0-2.3-0.3-3.4c18.4,3.1,30.3,5.4,30.3,5.4c-10.3-3.4-20.3-6.4-30.3-9.2
		C714.5,580.6,714.5,580.3,714.5,580z M653.8,614.2c0,0.3,0,0.6-0.3,0.7c0,0.3,0,0.6-0.3,0.7c-0.3,0.6-0.3,1-0.3,1.6
		c-0.3,0.6-0.6,1-0.6,1.6c-0.3,0.6-0.6,1-0.6,1.6c-0.6,0.7-1.3,1.6-1.9,2c-1,0.6-1.9,0.7-3.2,1c-1,0-1.9,0-2.9-0.3
		c-0.6-0.3-1.3-0.6-1.9-0.7c-0.6-0.3-1.3-0.7-2.3-1.3c-0.6-0.6-1.6-1.3-2.3-2c-0.6-0.7-1.6-1.8-1.9-3.1c-0.3-0.7-0.6-1.3-1-2
		c0-0.6-0.3-1-0.6-1.6c0-0.3,0-0.6,0-0.7c0-0.7-0.3-1.6-0.3-2c0-0.7-0.3-1.3-0.3-2c0-0.6,0-1.3,0-1.8c0.3-1,0.6-2,1.3-3.1
		c0.3-0.7,0.6-1.6,1.3-2c1-1.6,2.6-2.6,3.9-3.4c0.3-0.3,1-0.3,1.3-0.3c1.3-0.3,2.6,0,3.9,0.3h0.3c1.6,0.6,3.2,1.6,4.2,2.8
		c0.6,0.7,1.3,1.3,1.6,2.3c0.3,0.7,1,1.6,1,2.6c0,0.7,0.6,1.3,0.6,2s0.3,1.6,0.6,2.3c0,0.7,0.6,1.8,0.6,2.6
		C653.5,612.5,653.8,613.2,653.8,614.2z M707.4,548.8c-0.3,2-0.3,4.1-0.6,6.1c-27.4-10.1-51-16.2-66.8-19.7c1.3,2.8,2.9,5.4,4.2,8.2
		c21.6,4.8,43.9,10.8,62.3,15.9c-0.3,1,0,1.8-0.3,2.8c-0.3,0.7,0,1.8-0.3,2.6c-2.6-0.7-5.2-1.6-7.7-2c-11.3-3.1-22-5.7-32-7.9
		c-10-2.3-19.7-4.1-29.1-5.7c-9-1.6-17.4-2.8-25.2-3.8s-14.9-2-20.7-2.6c3.2,4.1,6.5,8.5,9.4,12.6c13.6,1.3,27.4,3.1,40.7,4.8
		c13.6,1.8,26.5,4.1,39.1,6.4c9,1.6,17.4,3.4,25.2,4.8c0,1.6,0,3.4,0,5.1c0,0.7,0,1.6,0,2c-37.5-9.5-68.8-13.6-88.8-15.3
		c2.6,3.4,4.5,6.7,6.8,10.1c28.7,2,58.8,6.4,82,10.1c0,2,0,3.8,0.3,5.7c0.3,3.7,0.3,6.4,1,7.9c0,0-3.2-0.7-9.7-1.8
		c-1.6-0.3-3.2-0.6-5.2-0.7c-1.9-0.3-3.9-0.7-6.5-1c-2.3-0.3-4.5-0.7-7.4-1c-2.6-0.3-5.5-0.7-8.7-1.3c-5.2-0.7-11-1.3-17.1-2
		c-1,0-1.9-0.3-2.9-0.3c-5.2-0.6-10.7-1-16.5-1.8c-0.6,0-1,0-1.6-0.3c-6.1-0.6-13.2-1.3-20.3-1.8c-3.6-0.3-7.1-0.6-11-0.7
		c-3.9-0.3-7.7-0.6-11.6-0.7s-8.1-0.6-11.9-0.7c-4.2-0.3-8.4-0.6-12.6-0.6c0,0,0.3-2.8,0.3-7.4c0.3-2.3,0.6-4.8,1-7.9
		c0.6-3.1,1-6.4,1.3-9.8c0.3-3.7,1-7.2,1.6-10.8c0.6-3.8,1.3-7.4,2.6-11.2c1-3.7,2.3-7.2,3.2-10.8c1-3.4,1.9-6.7,2.9-9.5
		c0,0,8.1,0,21.3,1c6.5,0.6,14.2,1,22.9,2c8.4,0.7,18.1,2,28.1,3.7c20,3.1,41,7.4,60.4,13.9C709,534.9,708.4,540.8,707.4,548.8z
		 M540.2,543.7l1-2.8h-14.5l-4.5,8.8l7.1-5.8L540.2,543.7z M518.8,589.2c-0.3,0-0.3,0-0.6,0c-0.6,0-1.6,0.3-2.3,0.6
		c-1,0.6-1.6,1.3-2.3,2.3s-1,2.3-1,3.7c-0.3,0.7,0,1.3-0.3,2c0,0.7,0,1.6,0,2.3c0,0.3,0,0.6,0,0.6c0,0.6,0,1,0.3,1.6
		c0,0.3,0,0.7,0.3,1c0,0.6,0.3,1,1,1.3h0.3h0.3c0.3,0,0.3-0.3,0.3-0.3c0-0.3,0-0.6,0-0.7c0-0.3,0-0.7,0-1c0-2.6,0.6-5.7,1.9-7.7
		c0.6-0.7,1-1.6,1.6-2c0.6-0.3,1-0.6,1.6-0.6h0.3c0,0,0.3,0.3,0.6,0.3c0,0,0.3,0,0.3,0.3h0.3c0.3,0,0.3,0,0.6-0.3c0-0.3,0-0.3,0-0.6
		s0-0.6-0.3-0.7C521.1,590.3,520.1,589.5,518.8,589.2z M646.1,602.1L646.1,602.1c-0.6-1.3-1.9-2.3-3.2-2.3h-0.3c-1,0-1.9,0.3-2.9,1
		c-1,0.6-1.6,1.6-2.3,2.8c-0.3,1.3-1,2.6-1,4.1c0,0.7,0,1.6,0,2.6c0,0.6,0,1,0.3,1.6c0,0.3,0,0.7,0,1c0,0,0,0,0,0.3
		c0,1,0.6,2.3,1.3,3.7c0.3,0.6,0.3,1,1.3,1.3h0.3h0.3c0.3,0,0.3-0.3,0.3-0.6c0-0.7-0.6-1.3-0.6-2s-0.3-1.6,0-2.3
		c0-2.3,0.6-4.8,1.3-6.7c0.6-1,1-1.8,1.6-2.6c0.6-0.6,1.3-0.7,1.9-0.7l0,0c0.3,0,0.6,0.3,1,0.3h0.3h0.3c0.3,0,0.3,0,0.6-0.3
		c0-0.3,0.3-0.3,0.3-0.6c0-0.3-0.3-0.6-0.3-1L646.1,602.1z"/>
	<g>
		<path d="M756.5,555.4l-0.6-5.1h30.7l0.6,5.1H756.5z M773.9,585.9l-4.5-28.2h4.8l4.5,28.2H773.9z"/>
		<path d="M828.8,585.9H823l-12.6-16.9l-0.3-0.6l0,0h-0.3l0,0h-0.3c-0.3,0-0.6,0.3-1,0.3h-0.3l0,0h-0.3l0,0h-0.3h-0.3l0,0h-0.3l0,0
			h-0.3c0,0,0,0-0.3,0h-0.3h-6.5l2.6,16.6h-4.8l-5.5-35.9h28.7c0,0.6,0,0.7,0.3,1.3c0.3,1.3,0.3,2.6,0.3,3.8c0,3.4-1.3,6.4-3.6,9.1
			c-0.3,0.3-0.3,0.6-0.6,0.7c0,0,0,0.3-0.3,0.3l0,0l-0.3,0.3c0,0,0,0-0.3,0.3l0,0c-0.3,0.3-0.3,0.3-0.6,0.6l-0.3,0.3l0,0
			c0,0-0.3,0-0.3,0.3l0,0l0,0l1,1L828.8,585.9z M812.6,560.3c1-1.6,1.9-3.4,2.6-5.1h-18.1l1.3,9.1h6.5c1.6,0,3.2-0.3,4.8-1
			C810.4,562.4,811.7,561.6,812.6,560.3z"/>
		<path d="M833.6,585.9l-5.5-35.9h4.8l5.5,35.9H833.6z M827.8,550l5.5,35.9h4.8l-5.5-35.9H827.8z M832.7,550.3h-4.5l5.5,35.6h4.5
			L832.7,550.3z"/>
		<path d="M869.1,550.3l5.5,35.6h-4.8l-3.6-23.4l-5.8,6.9l-1.3,1.8l-1.6,2l-12.3-11.1l0,0l-5.8-5.1l-1.3-7.4l18.1,16.2L869.1,550.3z
			 M839.8,561.1l5.8,5.1l3.2,19.7H844L839.8,561.1z"/>
		<path d="M879.5,585.9L874,550h4.8l5.5,35.9H879.5z M873.7,550l5.5,35.9h4.8l-5.5-35.9H873.7z M878.8,550.3h-4.5l5.5,35.6h4.5
			L878.8,550.3z"/>
		<path d="M884.6,555.4l-0.6-5.1h30.7l0.6,5.1H884.6z M902.1,585.9l-4.5-28.2h4.8l4.5,28.2H902.1z"/>
		<path d="M950.8,550l0.6,5.1h-30.7l-0.6-5.1H950.8z M930.2,580.8h25.5l0.6,5.1h-30.7l-4.5-28.2h4.8l1,6.1h22.3l0.6,5.1h-22.3
			l1.9,11.8L930.2,580.8L930.2,580.8z"/>
		<path d="M958.6,569.8l-0.6-5.1h11.6l0.6,5.1H958.6z M957.9,564.7l0.6,5.1h11.6l-0.6-5.1H957.9z M969.6,564.9h-11.3l0.6,4.7h11.3
			L969.6,564.9z"/>
		<path d="M1004.7,573.6h5.5c-1.3,7.2-6.8,12.3-14.5,12.3c-8.7,0-16.8-6.7-19.7-15.3c0-0.7-0.6-1.8-0.6-2.6c0-0.7-0.3-1.8,0-2.6
			c0-8.8,6.1-15.3,14.9-15.3c7.7,0,15.5,5.4,18.7,13.1h-5.2c-2.6-4.7-7.4-7.7-12.6-7.7c-5.8,0-10.3,4.4-10.3,10.2c0,0.7,0,1.6,0,2.6
			s0.3,1.8,0.6,2.6c2.3,5.8,7.7,10.2,13.6,10.2C999.3,580.8,1003.1,577.7,1004.7,573.6z"/>
		<path d="M1028.6,550c9.7,0,18.7,7.9,20.3,18c1.6,10.1-4.8,18-14.5,18s-18.7-7.9-20.3-18C1012.5,558,1019,550,1028.6,550z
			 M1019,567.9c1,6.9,7.4,12.8,14.2,12.8c6.8,0,11.3-5.7,10.3-12.8c-1-6.9-7.4-12.8-14.2-12.8C1022.8,555.1,1018,561.1,1019,567.9z"
			/>
		<path d="M1082.6,580.8l0.6,5.1h-26.8l-5.8-36.2h4.8l4.8,31.1H1082.6z"/>
		<path d="M1113.9,550l0.6,5.1h-30.3l-0.6-5.1H1113.9z M1093.2,580.8h25.5l0.6,5.1H1089l-4.5-28.2h4.8l1,6.1h22.3l0.6,5.1H1091
			L1093.2,580.8z"/>
		<path d="M1119.7,555.4l-0.6-5.1h30.7l0.6,5.1H1119.7z M1137.1,585.9l-4.5-28.2h4.8l4.5,28.2H1137.1z"/>
		<path d="M1185.9,550l0.6,5.1h-30.7l-0.6-5.1H1185.9z M1165.2,580.8h25.5l0.6,5.1h-30.7l-4.5-28.2h4.8l1,6.1h22.3l0.6,5.1h-22.3
			l1.9,11.8L1165.2,580.8z"/>
		<path d="M1196.5,585.9l-0.6-5.1h7.1l0.6,5.1H1196.5z"/>
		<path d="M1240.8,585.9h-5.8l-12.6-16.9l-0.3-0.6l0,0h-0.6l0,0h-0.3c-0.3,0-0.6,0.3-1,0.3h-0.3l0,0h-0.3l0,0h-0.3h-0.3l0,0h-0.3
			l0,0h-0.3c0,0,0,0-0.3,0h-0.3h-6.5l2.6,16.6h-5.2l-5.5-35.9h28.7c0,0.6,0,0.7,0.3,1.3c0.3,1.3,0.3,2.6,0.3,3.8
			c0,3.4-1.3,6.4-3.6,9.1c-0.3,0.3-0.3,0.6-0.6,0.7c0,0,0,0.3-0.3,0.3l0,0l0,0.3c0,0,0,0-0.3,0.3l0,0c-0.3,0.3-0.3,0.3-0.6,0.6
			l-0.3,0.3l0,0c0,0-0.3,0-0.3,0.3l0,0l0,0l1,1L1240.8,585.9z M1224.6,560.3c1-1.6,1.9-3.4,2.6-5.1h-18.1l1.3,9.1h6.5
			c1.6,0,3.2-0.3,4.8-1C1222.7,562.4,1224,561.5,1224.6,560.3z"/>
		<path d="M1251.4,550c9.7,0,18.7,7.9,20.3,18c1.6,10.1-4.8,18-14.5,18s-18.7-7.9-20.3-18C1234.9,558,1241.7,550,1251.4,550z
			 M1241.7,567.9c1,6.9,7.4,12.8,14.2,12.8s11.3-5.7,10.3-12.8c-1-6.9-7.4-12.8-14.2-12.8S1240.8,561.1,1241.7,567.9z"/>
	</g>
</g>
<polygon class="st1" points="1273,4 1039.6,81.7 1086.5,121 1086.5,121 884.6,333.9 707.5,180.9 1,763.9 7.2,764 183.2,764 
	705.8,332.8 892.4,494.1 1175.5,195.7 1175.5,195.7 1226,238.2 "/>
</svg>
